<?xml version="1.0" encoding="utf-8"?>
<!-- Generator: Adobe Illustrator 25.0.0, SVG Export Plug-In . SVG Version: 6.00 Build 0)  -->
<svg version="1.1" id="Group_3" xmlns="http://www.w3.org/2000/svg" xmlns:xlink="http://www.w3.org/1999/xlink" x="0px" y="0px"
	 viewBox="0 0 1070 628" style="enable-background:new 0 0 1070 628;" xml:space="preserve">
<style type="text/css">
	.st0{fill-rule:evenodd;clip-rule:evenodd;fill:#111A1A;stroke:url(#Rect_1_1_);stroke-dasharray:4,4;}
	.st1{fill-rule:evenodd;clip-rule:evenodd;fill:#0E1414;stroke:url(#Rect_1_Copy_1_);stroke-dasharray:4,4;}
	.st2{fill-rule:evenodd;clip-rule:evenodd;fill:#111A1A;stroke:url(#Rect_1_Copy_2_1_);stroke-dasharray:4,4;}
	.st3{fill-rule:evenodd;clip-rule:evenodd;fill:#111A1A;stroke:url(#Rect_1_Copy_3_1_);stroke-dasharray:4,4;}
	.st4{fill-rule:evenodd;clip-rule:evenodd;fill:#111A1A;stroke:url(#Rect_4_Copy_17_1_);}
	.st5{fill-rule:evenodd;clip-rule:evenodd;fill:#FFFFFF;}
	.st6{fill:#111A1A;stroke:url(#Rect_4_Copy_18_1_);}
	.st7{fill-rule:evenodd;clip-rule:evenodd;fill:#FEFFFF;}
	.st8{fill-rule:evenodd;clip-rule:evenodd;fill:#111A1A;stroke:url(#Rect_4_Copy_3_1_);}
	.st9{fill-rule:evenodd;clip-rule:evenodd;fill:#111A1A;stroke:url(#Rect_4_Copy_10_1_);}
	.st10{fill-rule:evenodd;clip-rule:evenodd;fill:#111A1A;stroke:url(#Rect_4_Copy_8_1_);}
	.st11{fill-rule:evenodd;clip-rule:evenodd;fill:#111A1A;stroke:url(#Rect_4_Copy_9_1_);}
	.st12{fill-rule:evenodd;clip-rule:evenodd;fill:#2E4242;stroke:#000000;}
	.st13{fill-rule:evenodd;clip-rule:evenodd;fill:url(#Shape_1_1_);}
	.st14{fill-rule:evenodd;clip-rule:evenodd;fill:url(#Shape_1_Copy_2_1_);}
	.st15{fill-rule:evenodd;clip-rule:evenodd;fill:url(#Shape_1_Copy_4_2_);}
	.st16{fill-rule:evenodd;clip-rule:evenodd;fill:#2E4242;}
	.st17{fill-rule:evenodd;clip-rule:evenodd;fill:#666666;}
	.st18{fill-rule:evenodd;clip-rule:evenodd;fill:#2E4242;stroke:#0E1414;}
	.st19{fill-rule:evenodd;clip-rule:evenodd;fill:#111A1A;stroke:url(#Rect_4_1_);}
	.st20{fill-rule:evenodd;clip-rule:evenodd;fill:#111A1A;stroke:url(#Rect_4_Copy_5_1_);}
	.st21{fill-rule:evenodd;clip-rule:evenodd;fill:#111A1A;stroke:url(#Rect_4_Copy_11_1_);}
	.st22{fill-rule:evenodd;clip-rule:evenodd;fill:#111A1A;stroke:url(#Rect_4_Copy_21_1_);}
	.st23{fill-rule:evenodd;clip-rule:evenodd;fill:#111A1A;stroke:url(#Rect_4_Copy_22_1_);}
	.st24{fill-rule:evenodd;clip-rule:evenodd;fill:#111A1A;stroke:url(#Rect_4_Copy_27_1_);}
	.st25{fill-rule:evenodd;clip-rule:evenodd;fill:#111A1A;stroke:url(#Rect_4_Copy_28_1_);}
	.st26{fill-rule:evenodd;clip-rule:evenodd;fill:#111A1A;stroke:url(#Rect_4_Copy_29_1_);}
	.st27{fill-rule:evenodd;clip-rule:evenodd;fill:#111A1A;stroke:url(#Rect_4_Copy_19_1_);}
	.st28{fill-rule:evenodd;clip-rule:evenodd;fill:#111A1A;stroke:url(#Rect_4_Copy_31_1_);}
	.st29{fill-rule:evenodd;clip-rule:evenodd;fill:#111A1A;stroke:url(#Rect_4_Copy_30_1_);}
	.st30{fill-rule:evenodd;clip-rule:evenodd;fill:#111A1A;stroke:url(#Rect_4_Copy_34_1_);}
	.st31{fill-rule:evenodd;clip-rule:evenodd;fill:#111A1A;stroke:url(#Rect_4_Copy_35_1_);}
	.st32{fill-rule:evenodd;clip-rule:evenodd;fill:#111A1A;stroke:url(#Shape_3_Copy_1_);}
	.st33{fill-rule:evenodd;clip-rule:evenodd;fill:#111A1A;stroke:url(#Shape_3_Copy_2_1_);}
	.st34{fill-rule:evenodd;clip-rule:evenodd;fill:#111A1A;stroke:url(#Shape_3_Copy_3_1_);}
	.st35{fill-rule:evenodd;clip-rule:evenodd;fill:#111A1A;stroke:url(#Oval_9_Copy_3_1_);}
	.st36{fill-rule:evenodd;clip-rule:evenodd;fill:#111A1A;stroke:url(#Oval_9_Copy_3-2_1_);}
	.st37{fill-rule:evenodd;clip-rule:evenodd;fill:#111A1A;stroke:url(#Oval_9_Copy_6_1_);}
	.st38{fill-rule:evenodd;clip-rule:evenodd;fill:#111A1A;stroke:url(#Oval_9_Copy_6-2_1_);}
	.st39{fill-rule:evenodd;clip-rule:evenodd;fill:#111A1A;stroke:url(#Oval_9_Copy_7_1_);}
	.st40{fill-rule:evenodd;clip-rule:evenodd;fill:#111A1A;stroke:url(#Oval_9_Copy_7-2_1_);}
	.st41{fill-rule:evenodd;clip-rule:evenodd;fill:url(#Shape_1_Copy_4_3_);}
</style>
<g>

		<linearGradient id="Rect_1_1_" gradientUnits="userSpaceOnUse" x1="840" y1="-2196" x2="840" y2="-2070" gradientTransform="matrix(1 0 0 -1 -305 -2068.7649)">
		<stop  offset="0" style="stop-color:#74FBE8"/>
		<stop  offset="1" style="stop-color:#81FAA3"/>
	</linearGradient>
	<path id="Rect_1" class="st0" d="M11,1.2h1048c5.5,0,10,4.5,10,10v106c0,5.5-4.5,10-10,10H11c-5.5,0-10-4.5-10-10v-106
		C1,5.7,5.5,1.2,11,1.2z"/>

		<linearGradient id="Rect_1_Copy_1_" gradientUnits="userSpaceOnUse" x1="839.75" y1="-2695.53" x2="839.75" y2="-2237.0901" gradientTransform="matrix(1 0 0 -1 -305 -2068.7649)">
		<stop  offset="0" style="stop-color:#74FBE8"/>
		<stop  offset="1" style="stop-color:#81FAA3"/>
	</linearGradient>
	<path id="Rect_1_Copy" class="st1" d="M11,168.3h1047.5c5.5,0,10,4.5,10,10v438.5c0,5.5-4.5,10-10,10c0,0,0,0,0,0H11
		c-5.5,0-10-4.5-10-10V178.3C1,172.8,5.5,168.3,11,168.3z"/>

		<linearGradient id="Rect_1_Copy_2_1_" gradientUnits="userSpaceOnUse" x1="636.3645" y1="-2661.8401" x2="636.3645" y2="-2270.78" gradientTransform="matrix(1 0 0 -1 -305 -2068.7649)">
		<stop  offset="0" style="stop-color:#74FBE8"/>
		<stop  offset="1" style="stop-color:#81FAA3"/>
	</linearGradient>
	<path id="Rect_1_Copy_2" class="st2" d="M185.2,202h292.4c5.5,0,10,4.5,10,10v371c0,5.5-4.5,10-10,10H185.2
		c-5.5,0-10-4.5-10-10V212C175.2,206.5,179.6,202,185.2,202z"/>

		<linearGradient id="Rect_1_Copy_3_1_" gradientUnits="userSpaceOnUse" x1="1130.7729" y1="-2661.8401" x2="1130.7729" y2="-2270.78" gradientTransform="matrix(1 0 0 -1 -305 -2068.7649)">
		<stop  offset="0" style="stop-color:#74FBE8"/>
		<stop  offset="1" style="stop-color:#81FAA3"/>
	</linearGradient>
	<path id="Rect_1_Copy_3" class="st3" d="M640.3,202h371c5.5,0,10,4.5,10,10v371c0,5.5-4.5,10-10,10h-371c-5.5,0-10-4.5-10-10
		V212C630.3,206.5,634.7,202,640.3,202z"/>

		<linearGradient id="Rect_4_Copy_17_1_" gradientUnits="userSpaceOnUse" x1="653.006" y1="-2179" x2="653.006" y2="-2131" gradientTransform="matrix(1 0 0 -1 -305 -2068.7649)">
		<stop  offset="0" style="stop-color:#74FBE8"/>
		<stop  offset="1" style="stop-color:#81FAA3"/>
	</linearGradient>
	<path id="Rect_4_Copy_17" class="st4" d="M241,62.2h214c2.2,0,4,1.8,4,4v40c0,2.2-1.8,4-4,4H241c-2.2,0-4-1.8-4-4v-40
		C237,64,238.8,62.2,241,62.2z"/>
	<path id="OP_Contracts" class="st5" d="M298,80.4c-1.7-0.1-3.4,0.6-4.6,1.9c-2.1,2.8-2.1,6.7,0,9.5c2.5,2.5,6.5,2.6,9,0.1
		c0,0,0.1-0.1,0.1-0.1c1.1-1.3,1.7-3,1.6-4.7c0.1-1.7-0.5-3.4-1.6-4.8C301.4,81,299.7,80.3,298,80.4z M298,81.7
		c1.3-0.1,2.6,0.5,3.5,1.5c1.6,2.3,1.6,5.4,0,7.8c-0.9,1-2.2,1.5-3.5,1.5c-1.3,0.1-2.6-0.5-3.5-1.5c-1.6-2.3-1.6-5.4,0-7.7
		C295.4,82.2,296.7,81.6,298,81.7z M306.2,80.6v12.8h1.5v-5.2h3.8c3,0,4.4-1.3,4.4-3.8s-1.5-3.8-4.4-3.8H306.2L306.2,80.6z
		 M307.6,81.9h3.7c0.8-0.1,1.6,0.2,2.3,0.6c0.5,0.5,0.8,1.2,0.8,1.9c0.1,0.7-0.2,1.4-0.7,1.9c-0.7,0.5-1.5,0.7-2.3,0.6h-3.7
		L307.6,81.9L307.6,81.9z M329.2,80.4c-1.8-0.1-3.5,0.7-4.6,2c-1,1.3-1.5,3-1.5,4.7c-0.1,1.7,0.4,3.3,1.4,4.6c2,2.5,5.6,2.8,8.1,0.8
		c1.1-0.9,1.8-2.1,2-3.5h-1.4c-0.3,2-2.1,3.4-4.1,3.3c-1.3,0.1-2.6-0.5-3.4-1.5c-0.8-1.1-1.2-2.5-1.1-3.8c-0.1-1.4,0.3-2.7,1.1-3.8
		c0.8-1.1,2.1-1.6,3.5-1.6c0.9,0,1.8,0.2,2.6,0.7c0.7,0.5,1.2,1.3,1.4,2.2h1.4c-0.1-1.2-0.8-2.3-1.7-3.1
		C331.8,80.8,330.5,80.4,329.2,80.4L329.2,80.4z M340.8,83.9c-1.3-0.1-2.5,0.5-3.3,1.4c-0.8,1-1.2,2.2-1.2,3.5
		c0,1.3,0.4,2.5,1.2,3.4c0.8,1,2.1,1.5,3.3,1.4c1.3,0,2.5-0.5,3.3-1.4c1.6-2,1.6-4.9,0-6.9C343.3,84.4,342,83.9,340.8,83.9
		L340.8,83.9z M340.8,85.1c0.9,0,1.8,0.4,2.3,1.1c0.5,0.8,0.8,1.7,0.7,2.6c0,0.9-0.2,1.8-0.7,2.6c-0.5,0.7-1.4,1.2-2.3,1.1
		c-0.9,0-1.8-0.4-2.3-1.1c-1-1.6-1-3.6,0-5.1C339,85.5,339.9,85.1,340.8,85.1L340.8,85.1z M351.5,83.9c-1.2,0-2.3,0.6-2.9,1.6v-1.4
		h-1.4v9.3h1.4v-5.6c0-0.8,0.3-1.5,0.8-2c0.4-0.5,1-0.7,1.7-0.7c1.6,0,2.4,0.9,2.4,2.7v5.6h1.4v-5.7C355,85.2,353.8,83.9,351.5,83.9
		L351.5,83.9z M359.7,81.2l-1.4,0.6v2.4h-1.9v1.2h1.9v5.9c0,0.6,0.1,1.1,0.5,1.6c0.4,0.4,1,0.6,1.6,0.6h1.4v-1.2h-1.2
		c-0.3,0-0.5-0.1-0.7-0.2c-0.2-0.2-0.2-0.5-0.2-0.7v-5.9h2.3v-1.2h-2.3L359.7,81.2L359.7,81.2z M367.7,83.9c-0.6,0-1.2,0.2-1.7,0.6
		c-0.4,0.3-0.8,0.8-1,1.3v-1.6h-1.4v9.3h1.4v-4.9c0-0.8,0.2-1.6,0.7-2.2c0.4-0.6,1.1-1,1.8-0.9c0.5,0,0.9,0.1,1.4,0.2v-1.4
		C368.5,84,368.1,83.9,367.7,83.9z M374.2,83.9c-0.9,0-1.9,0.2-2.7,0.6c-0.8,0.5-1.3,1.3-1.4,2.2l1.4,0.1c0.1-0.6,0.5-1,0.9-1.3
		c0.5-0.3,1.1-0.4,1.7-0.4c1.1-0.2,2.2,0.6,2.4,1.7c0,0.2,0,0.4,0,0.6v0.5l-2.2,0c-1.1,0-2.3,0.2-3.2,0.8c-0.8,0.5-1.3,1.4-1.3,2.4
		c0,0.7,0.3,1.4,0.9,1.9c0.6,0.5,1.4,0.7,2.2,0.7c0.8,0,1.6-0.2,2.3-0.6c0.6-0.3,1-0.7,1.4-1.2v1.6h1.3v-6c0-0.9-0.2-1.8-0.8-2.5
		C376.3,84.2,375.3,83.8,374.2,83.9z M376.5,89v0.8c0,0.8-0.4,1.5-1,1.9c-0.6,0.6-1.5,0.9-2.3,0.9c-0.5,0-1-0.1-1.4-0.4
		c-0.3-0.2-0.5-0.6-0.5-1.1c0-1.4,1-2,3.1-2.1L376.5,89z M384.2,83.9c-1.3-0.1-2.5,0.5-3.3,1.5c-0.8,1-1.2,2.2-1.1,3.5
		c-0.1,1.2,0.3,2.5,1.1,3.4c0.8,1,2,1.5,3.3,1.4c1,0,2-0.3,2.8-0.9c0.8-0.7,1.3-1.7,1.4-2.7h-1.4c0,1.4-1.2,2.5-2.5,2.4
		c-0.1,0-0.1,0-0.2,0c-0.8,0-1.6-0.3-2.1-1c-0.5-0.8-0.8-1.7-0.7-2.7c-0.1-1,0.2-1.9,0.8-2.7c0.5-0.7,1.3-1.1,2.1-1
		c0.6,0,1.3,0.1,1.8,0.5c0.5,0.4,0.8,1,0.9,1.6h1.4c-0.1-1-0.6-1.9-1.3-2.5C386.2,84.2,385.2,83.9,384.2,83.9L384.2,83.9z
		 M392.5,81.2l-1.4,0.6v2.4h-1.9v1.2h1.9v5.9c0,0.6,0.1,1.1,0.4,1.6c0.4,0.4,1,0.6,1.6,0.6h1.4v-1.2h-1.2c-0.3,0-0.5-0.1-0.7-0.2
		c-0.2-0.2-0.2-0.5-0.2-0.7v-5.9h2.3v-1.2h-2.3L392.5,81.2L392.5,81.2z M399.7,83.9c-0.9,0-1.8,0.2-2.6,0.7c-0.7,0.4-1.1,1.1-1,1.9
		c0,0.8,0.4,1.5,1.1,1.8c0.7,0.4,1.5,0.7,2.3,0.8c0.7,0.1,1.3,0.3,2,0.6c0.5,0.2,0.9,0.7,0.9,1.2c0,1-0.8,1.6-2.5,1.6
		c-0.6,0-1.2-0.1-1.8-0.4c-0.4-0.4-0.7-1-0.8-1.6h-1.4c0.2,2.1,1.5,3.2,4,3.2c2.6,0,3.9-1,3.9-2.9c0-0.8-0.4-1.5-1.1-1.9
		c-0.7-0.4-1.6-0.7-2.4-0.9c-0.7-0.2-1.3-0.4-1.9-0.6c-0.4-0.1-0.7-0.5-0.8-1c0-0.4,0.2-0.8,0.6-1c0.5-0.3,1-0.4,1.5-0.4
		c0.6,0,1.2,0.1,1.7,0.4c0.4,0.3,0.6,0.8,0.7,1.3h1.4C403.3,84.9,402,83.9,399.7,83.9L399.7,83.9z"/>

		<linearGradient id="Rect_4_Copy_18_1_" gradientUnits="userSpaceOnUse" x1="730" y1="516.765" x2="730" y2="564.765" gradientTransform="matrix(1 0 0 -1 0 628)">
		<stop  offset="0" style="stop-color:#74FBE8"/>
		<stop  offset="1" style="stop-color:#81FAA3"/>
	</linearGradient>
	<path id="Rect_4_Copy_18" class="st6" d="M595,63.2h270c2.2,0,4,1.8,4,4v40c0,2.2-1.8,4-4,4H595c-2.2,0-4-1.8-4-4v-40
		C591,65,592.8,63.2,595,63.2z"/>
	<path id="Topia_Storage_Contracts" class="st5" d="M628.1,79.4v1.3h4.5v11.6h1.5V80.7h4.5v-1.3H628.1z M644.2,82.7
		c-1.3-0.1-2.5,0.5-3.3,1.4c-0.8,1-1.2,2.2-1.2,3.5c0,1.3,0.4,2.5,1.2,3.4c0.8,1,2.1,1.5,3.3,1.5c1.3,0,2.5-0.5,3.3-1.5
		c1.6-2,1.6-4.9,0-6.9C646.7,83.2,645.4,82.6,644.2,82.7L644.2,82.7z M644.2,83.9c0.9,0,1.8,0.4,2.3,1.1c1,1.6,1,3.6,0,5.1
		c-0.5,0.7-1.4,1.2-2.3,1.1c-0.9,0-1.8-0.4-2.3-1.1c-1-1.6-1-3.6,0-5.1C642.4,84.3,643.2,83.9,644.2,83.9L644.2,83.9z M655,82.7
		c-1.3-0.1-2.5,0.6-3.1,1.8v-1.5h-1.3v12.9h1.4v-5.3c0.6,1.2,1.8,2,3.1,1.9c1.2,0,2.4-0.5,3.1-1.5c0.7-1,1.1-2.2,1-3.4
		c0-1.2-0.3-2.4-1.1-3.4C657.4,83.2,656.2,82.6,655,82.7z M654.8,83.9c0.9-0.1,1.8,0.4,2.3,1.1c0.5,0.8,0.7,1.7,0.7,2.6
		c0.1,0.9-0.2,1.9-0.7,2.6c-0.5,0.7-1.4,1.1-2.3,1c-0.8,0-1.6-0.3-2-1c-0.6-0.8-0.8-1.7-0.8-2.6v-0.2c0-0.9,0.2-1.8,0.7-2.6
		C653.1,84.3,653.9,83.8,654.8,83.9L654.8,83.9z M662.3,79.4c-0.3,0-0.6,0.1-0.8,0.3c-0.2,0.2-0.3,0.5-0.3,0.8
		c0,0.3,0.1,0.6,0.3,0.8c0.4,0.4,1.1,0.4,1.5,0c0.2-0.2,0.3-0.5,0.3-0.8c0-0.3-0.1-0.6-0.3-0.8C662.8,79.5,662.5,79.4,662.3,79.4
		L662.3,79.4z M661.5,82.9v9.3h1.4v-9.3H661.5z M669.7,82.7c-0.9,0-1.9,0.2-2.7,0.6c-0.8,0.5-1.3,1.3-1.4,2.2l1.4,0.1
		c0.1-0.6,0.4-1,0.9-1.3c0.5-0.3,1.1-0.4,1.7-0.4c1.1-0.2,2.2,0.6,2.4,1.7c0,0.2,0,0.4,0,0.6v0.5l-2.2,0c-1.1,0-2.3,0.2-3.2,0.8
		c-0.8,0.5-1.3,1.4-1.3,2.4c0,0.7,0.3,1.4,0.9,1.9c0.6,0.5,1.4,0.8,2.2,0.7c0.8,0,1.6-0.2,2.3-0.6c0.6-0.3,1-0.7,1.4-1.2v1.6h1.3v-6
		c0-0.9-0.2-1.8-0.8-2.5C671.9,83,670.8,82.6,669.7,82.7L669.7,82.7z M672.1,87.8v0.8c0,0.8-0.4,1.5-1,1.9c-0.6,0.6-1.5,0.9-2.3,0.9
		c-0.5,0-1-0.1-1.4-0.4c-0.3-0.2-0.5-0.6-0.5-1.1c0-1.4,1-2,3.1-2.1L672.1,87.8z M686.2,79.1c-1.2,0-2.3,0.3-3.3,0.9
		c-0.9,0.6-1.5,1.5-1.4,2.6c0,1,0.5,2,1.5,2.5c1,0.4,1.9,0.8,3,1.1c0.9,0.2,1.8,0.5,2.7,0.9c0.8,0.3,1.3,1.1,1.3,1.9
		c0,0.7-0.4,1.3-1,1.6c-0.8,0.4-1.7,0.6-2.6,0.6c-0.9,0.1-1.8-0.2-2.6-0.7c-0.7-0.6-1.1-1.5-1.2-2.5h-1.5c0,1.4,0.6,2.7,1.7,3.5
		c1,0.7,2.3,1.1,3.6,1c1.3,0.1,2.6-0.3,3.6-1c0.9-0.6,1.4-1.6,1.3-2.7c0-1.1-0.6-2.2-1.6-2.7c-1.1-0.5-2.2-0.9-3.3-1.2
		c-0.8-0.2-1.6-0.5-2.4-0.8c-0.6-0.3-1.1-0.9-1.1-1.6c0-0.7,0.3-1.3,0.9-1.6c0.7-0.3,1.5-0.5,2.2-0.5c0.9-0.1,1.7,0.2,2.4,0.7
		c0.6,0.5,1,1.3,1.1,2.1h1.5c0-1.2-0.6-2.3-1.5-3.1C688.6,79.4,687.4,79.1,686.2,79.1L686.2,79.1z M695.6,79.9l-1.4,0.6v2.4h-1.9
		v1.2h1.9v5.9c0,0.6,0.1,1.1,0.5,1.6c0.4,0.4,1,0.7,1.6,0.6h1.4V91h-1.2c-0.2,0-0.5-0.1-0.7-0.2c-0.2-0.2-0.2-0.5-0.2-0.7v-5.9h2.3
		v-1.2h-2.3V79.9L695.6,79.9z M703.6,82.7c-1.3-0.1-2.5,0.5-3.3,1.4c-0.8,1-1.2,2.2-1.2,3.5c-0.1,1.3,0.4,2.5,1.2,3.4
		c0.8,1,2,1.5,3.3,1.5c1.3,0,2.5-0.5,3.3-1.5c1.6-2,1.6-4.9,0-6.9C706.1,83.2,704.9,82.6,703.6,82.7L703.6,82.7z M703.6,83.9
		c0.9,0,1.8,0.4,2.3,1.1c1,1.6,1,3.6,0,5.1c-0.5,0.7-1.4,1.2-2.3,1.1c-0.9,0-1.8-0.4-2.3-1.1c-1-1.6-1-3.6,0-5.1
		C701.8,84.3,702.7,83.9,703.6,83.9L703.6,83.9z M714.1,82.7c-0.6,0-1.2,0.2-1.7,0.6c-0.4,0.3-0.8,0.8-1,1.3v-1.6H710v9.3h1.4v-4.9
		c0-0.8,0.2-1.6,0.7-2.2c0.4-0.6,1.1-1,1.8-0.9c0.5,0,0.9,0.1,1.4,0.2v-1.4C714.9,82.8,714.5,82.7,714.1,82.7L714.1,82.7z
		 M720.6,82.7c-0.9,0-1.9,0.2-2.7,0.6c-0.8,0.5-1.3,1.3-1.4,2.2l1.4,0.1c0.1-0.6,0.4-1,0.9-1.3c0.5-0.3,1.1-0.4,1.7-0.4
		c1.6,0,2.4,0.8,2.4,2.3v0.5l-2.2,0c-1.1,0-2.3,0.2-3.2,0.8c-0.8,0.5-1.3,1.4-1.3,2.4c0,0.7,0.3,1.4,0.9,1.9
		c0.6,0.5,1.4,0.8,2.2,0.7c0.8,0,1.6-0.2,2.3-0.6c0.6-0.3,1-0.7,1.4-1.2v1.6h1.3v-6c0-0.9-0.2-1.8-0.8-2.5
		C722.8,83,721.7,82.6,720.6,82.7L720.6,82.7z M722.9,87.8v0.8c0,0.8-0.4,1.5-1,1.9c-0.6,0.6-1.5,0.9-2.3,0.9c-0.5,0-1-0.1-1.4-0.4
		c-0.3-0.2-0.5-0.6-0.5-1.1c0-1.4,1-2,3.1-2.1L722.9,87.8z M730.4,82.7c-1.2-0.1-2.3,0.5-3.1,1.4c-1.5,2-1.5,4.7,0,6.6
		c0.8,0.9,1.9,1.4,3.1,1.3c1.3,0,2.5-0.7,3.1-1.9v1.6c0,2.1-0.9,3.1-2.8,3.1c-0.7,0-1.3-0.1-1.9-0.5c-0.4-0.3-0.7-0.8-0.8-1.4h-1.4
		c0.1,0.9,0.5,1.7,1.2,2.3c0.8,0.6,1.9,0.8,2.9,0.8c2.8,0,4.2-1.5,4.2-4.5v-8.6h-1.4v1.6C733,83.4,731.8,82.6,730.4,82.7L730.4,82.7
		z M730.6,83.9c0.8,0,1.7,0.3,2.2,1c1,1.5,1,3.5,0,5c-0.5,0.6-1.3,1-2.2,1c-0.9,0.1-1.7-0.3-2.2-1c-0.5-0.7-0.7-1.5-0.7-2.4
		c-0.1-0.9,0.2-1.8,0.8-2.5C729,84.2,729.8,83.8,730.6,83.9L730.6,83.9z M741.1,82.7c-1.2,0-2.4,0.5-3.2,1.5c-1.6,2.1-1.6,5,0.1,7
		c0.8,0.9,2,1.4,3.2,1.3c1.1,0,2.1-0.3,3-1.1c0.6-0.6,1.1-1.3,1.3-2.2h-1.4c-0.2,0.6-0.5,1.1-0.9,1.5c-0.5,0.4-1.2,0.6-1.8,0.6
		c-0.8,0-1.6-0.3-2.1-0.9c-0.5-0.7-0.8-1.5-0.8-2.4h7.3c0.1-1.3-0.3-2.7-1.1-3.8C743.6,83.2,742.4,82.6,741.1,82.7L741.1,82.7z
		 M741.1,83.9c1.8,0,2.8,1,2.9,3h-5.8c0-0.8,0.4-1.6,0.9-2.2C739.6,84.2,740.3,83.9,741.1,83.9L741.1,83.9z M758.9,79.1
		c-1.8-0.1-3.5,0.7-4.6,2c-1,1.3-1.5,3-1.5,4.7c-0.1,1.7,0.4,3.3,1.4,4.6c1.1,1.3,2.8,2.1,4.6,2c2.8,0.1,5.2-1.9,5.6-4.7H763
		c-0.3,2-2.1,3.4-4.1,3.3c-1.3,0.1-2.6-0.5-3.4-1.5c-0.8-1.1-1.2-2.4-1.1-3.8c-0.1-1.4,0.3-2.7,1.1-3.9c0.8-1.1,2.1-1.6,3.5-1.6
		c0.9,0,1.8,0.2,2.6,0.7c0.7,0.5,1.2,1.3,1.4,2.2h1.4c-0.1-1.2-0.8-2.3-1.7-3.1C761.5,79.5,760.2,79.1,758.9,79.1L758.9,79.1z
		 M770.4,82.7c-1.3-0.1-2.5,0.5-3.3,1.4c-0.8,1-1.2,2.2-1.2,3.5c0,1.3,0.4,2.5,1.2,3.4c0.8,1,2.1,1.5,3.3,1.5c1.3,0,2.5-0.5,3.3-1.5
		c1.6-2,1.5-4.9,0-6.9C772.9,83.2,771.7,82.6,770.4,82.7L770.4,82.7z M770.4,83.9c0.9,0,1.8,0.4,2.3,1.1c1,1.6,1,3.6,0,5.1
		c-0.5,0.7-1.4,1.2-2.3,1.1c-0.9,0-1.8-0.4-2.3-1.1c-1-1.6-1-3.6,0-5.1C768.7,84.3,769.5,83.9,770.4,83.9L770.4,83.9z M781.2,82.7
		c-1.2,0-2.3,0.6-2.9,1.6v-1.4h-1.4v9.3h1.4v-5.6c0-0.8,0.3-1.5,0.8-2c0.4-0.5,1-0.7,1.7-0.7c1.6,0,2.4,0.9,2.4,2.7v5.6h1.4v-5.7
		C784.7,84,783.5,82.7,781.2,82.7L781.2,82.7z M789.3,79.9l-1.4,0.6v2.4h-1.9v1.2h1.9v5.9c0,0.6,0.1,1.1,0.4,1.6
		c0.4,0.4,1,0.7,1.6,0.6h1.4V91h-1.2c-0.2,0-0.5-0.1-0.7-0.2c-0.2-0.2-0.2-0.5-0.2-0.7v-5.9h2.3v-1.2h-2.3V79.9L789.3,79.9z
		 M797.3,82.7c-0.6,0-1.2,0.2-1.7,0.6c-0.4,0.3-0.8,0.8-1,1.3v-1.6h-1.4v9.3h1.4v-4.9c0-0.8,0.2-1.6,0.7-2.2c0.4-0.6,1.1-1,1.8-0.9
		c0.5,0,0.9,0.1,1.4,0.2v-1.4C798.2,82.8,797.8,82.7,797.3,82.7L797.3,82.7z M803.9,82.7c-0.9,0-1.9,0.2-2.7,0.6
		c-0.8,0.5-1.3,1.3-1.4,2.2l1.4,0.1c0.1-0.6,0.5-1,0.9-1.3c0.5-0.3,1.1-0.4,1.7-0.4c1.6,0,2.4,0.8,2.4,2.3v0.5l-2.2,0
		c-1.1,0-2.3,0.2-3.2,0.8c-0.8,0.5-1.3,1.4-1.3,2.4c0,0.7,0.3,1.4,0.9,1.9c0.6,0.5,1.4,0.8,2.2,0.7c0.8,0,1.6-0.2,2.3-0.6
		c0.6-0.3,1-0.7,1.4-1.2v1.6h1.3v-6c0-0.9-0.2-1.8-0.8-2.5C806,83,804.9,82.6,803.9,82.7L803.9,82.7z M806.2,87.8v0.8
		c0,0.8-0.4,1.5-1,1.9c-0.6,0.6-1.5,0.9-2.3,0.9c-0.5,0-1-0.1-1.4-0.4c-0.3-0.2-0.5-0.6-0.5-1.1c0-1.4,1-2,3.1-2.1L806.2,87.8z
		 M813.9,82.7c-1.3-0.1-2.5,0.5-3.3,1.5c-0.8,1-1.1,2.2-1.1,3.5c-0.1,1.2,0.3,2.5,1.1,3.4c0.8,1,2,1.5,3.3,1.4c1,0,2-0.3,2.8-0.9
		c0.8-0.7,1.3-1.7,1.4-2.7h-1.4c0,1.4-1.2,2.5-2.5,2.4c-0.1,0-0.1,0-0.2,0c-0.8,0-1.6-0.3-2.1-1c-0.5-0.8-0.8-1.7-0.7-2.7
		c-0.1-1,0.2-1.9,0.8-2.7c0.5-0.7,1.3-1.1,2.1-1c0.6,0,1.3,0.2,1.8,0.5c0.5,0.4,0.8,1,0.9,1.6h1.4c-0.1-1-0.6-1.9-1.3-2.5
		C815.8,82.9,814.9,82.6,813.9,82.7L813.9,82.7z M822.2,79.9l-1.4,0.6v2.4h-1.9v1.2h1.9v5.9c0,0.6,0.1,1.1,0.4,1.6
		c0.4,0.4,1,0.7,1.6,0.6h1.4V91h-1.2c-0.2,0-0.5-0.1-0.7-0.2c-0.2-0.2-0.2-0.5-0.2-0.7v-5.9h2.3v-1.2h-2.3V79.9L822.2,79.9z
		 M829.4,82.7c-0.9,0-1.8,0.2-2.6,0.7c-0.7,0.4-1.1,1.1-1,1.9c0,0.8,0.4,1.5,1.1,1.8c0.7,0.4,1.5,0.7,2.3,0.8c0.7,0.1,1.3,0.3,2,0.6
		c0.5,0.2,0.9,0.7,0.9,1.2c0,1-0.8,1.6-2.5,1.6c-0.6,0-1.2-0.1-1.8-0.4c-0.5-0.4-0.7-1-0.8-1.6h-1.4c0.2,2.1,1.6,3.2,4,3.2
		c2.6,0,3.9-1,3.9-2.9c0-0.8-0.4-1.5-1.1-1.9c-0.8-0.4-1.6-0.7-2.4-0.9c-0.7-0.2-1.3-0.4-1.9-0.6c-0.4-0.1-0.8-0.5-0.8-1
		c0-0.4,0.2-0.8,0.6-1c0.5-0.3,1-0.4,1.5-0.4c0.6,0,1.2,0.1,1.7,0.4c0.4,0.3,0.6,0.8,0.7,1.3h1.4C832.9,83.6,831.7,82.7,829.4,82.7
		L829.4,82.7z"/>
	<path id="OP-Geth" class="st5" d="M211,558.1c-1.7-0.1-3.4,0.6-4.6,1.9c-2.1,2.8-2.1,6.7,0,9.5c2.4,2.5,6.5,2.6,9,0.1
		c0,0,0.1-0.1,0.1-0.1c1.1-1.3,1.7-3,1.6-4.7c0.1-1.7-0.5-3.4-1.6-4.8C214.4,558.7,212.7,558,211,558.1z M211,559.4
		c1.3-0.1,2.6,0.5,3.5,1.5c1.6,2.3,1.6,5.4,0,7.8c-0.9,1-2.2,1.5-3.5,1.5c-1.3,0.1-2.6-0.5-3.5-1.5c-1.6-2.3-1.6-5.4,0-7.7
		C208.4,559.9,209.7,559.4,211,559.4L211,559.4z M219.2,558.4v12.8h1.5v-5.2h3.8c2.9,0,4.4-1.3,4.4-3.8c0-2.5-1.5-3.8-4.4-3.8H219.2
		z M220.7,559.6h3.7c0.8-0.1,1.6,0.2,2.3,0.6c0.5,0.5,0.8,1.2,0.8,1.9c0.1,0.7-0.2,1.4-0.7,1.9c-0.7,0.5-1.5,0.7-2.3,0.6h-3.7
		L220.7,559.6L220.7,559.6z M230.3,565.9v1.2h9.1v-1.2H230.3z M247.1,558.1c-1.7-0.1-3.4,0.7-4.5,2c-1.1,1.3-1.6,3-1.5,4.7
		c-0.1,1.7,0.5,3.4,1.6,4.7c1.2,1.3,2.9,2.1,4.7,1.9c1,0,2-0.1,3-0.4c0.8-0.2,1.6-0.6,2.2-1.2v-5.3h-5.5v1.3h4v3.3
		c-0.5,0.3-1,0.6-1.6,0.7c-0.7,0.2-1.3,0.3-2,0.3c-1.4,0.1-2.8-0.4-3.8-1.5c-0.8-1.1-1.3-2.5-1.2-3.8c-0.1-1.4,0.4-2.8,1.2-3.9
		c0.8-1,2-1.5,3.3-1.5c1,0,2,0.2,2.8,0.8c0.7,0.6,1.2,1.4,1.3,2.2h1.5c-0.1-1.2-0.7-2.4-1.7-3.2C249.8,558.4,248.5,558,247.1,558.1
		L247.1,558.1z M258.7,561.6c-1.2,0-2.4,0.5-3.2,1.5c-1.6,2.1-1.6,5,0.1,7c0.8,0.9,2,1.4,3.2,1.3c1.1,0,2.1-0.3,3-1.1
		c0.6-0.6,1.1-1.3,1.3-2.2h-1.4c-0.2,0.6-0.5,1.1-0.9,1.5c-0.5,0.4-1.2,0.6-1.9,0.6c-0.8,0-1.6-0.3-2.1-0.9
		c-0.5-0.7-0.8-1.5-0.8-2.4h7.3c0-1.3-0.3-2.7-1.1-3.8C261.3,562.1,260,561.6,258.7,561.6L258.7,561.6z M258.7,562.9
		c1.8,0,2.8,1,2.9,3h-5.8c0-0.8,0.4-1.6,0.9-2.2C257.3,563.1,258,562.8,258.7,562.9L258.7,562.9z M267.3,558.9l-1.4,0.6v2.4H264v1.2
		h1.9v5.9c0,0.6,0.1,1.1,0.5,1.6c0.4,0.4,1,0.7,1.6,0.6h1.4V570h-1.2c-0.2,0-0.5-0.1-0.7-0.2c-0.2-0.2-0.2-0.5-0.2-0.7v-5.9h2.3
		v-1.2h-2.3L267.3,558.9L267.3,558.9z M271.2,558.1v13.1h1.4v-5.3c0-0.8,0.2-1.6,0.7-2.2c0.4-0.6,1.1-0.9,1.8-0.9
		c0.7,0,1.3,0.2,1.8,0.7c0.4,0.6,0.7,1.3,0.6,2v5.6h1.4v-5.9c0.1-1-0.2-2-0.9-2.7c-0.7-0.7-1.6-1-2.5-1c-1.3,0-2.4,0.7-3,1.8v-5.3
		L271.2,558.1L271.2,558.1z"/>
	<path id="Topia_Node" class="st5" d="M662.6,558.4v1.3h4.5v11.6h1.5v-11.6h4.5v-1.3L662.6,558.4L662.6,558.4z M678.7,561.6
		c-1.3-0.1-2.5,0.5-3.3,1.4c-0.8,1-1.2,2.2-1.2,3.5c0,1.3,0.4,2.5,1.2,3.4c0.8,1,2.1,1.5,3.3,1.5c1.3,0,2.5-0.5,3.3-1.5
		c1.6-2,1.6-4.9,0-6.9C681.2,562.1,679.9,561.6,678.7,561.6L678.7,561.6z M678.7,562.9c0.9,0,1.8,0.4,2.3,1.1c1,1.6,1,3.6,0,5.1
		c-0.5,0.7-1.4,1.2-2.3,1.1c-0.9,0-1.8-0.4-2.3-1.1c-1-1.6-1-3.6,0-5.1C676.9,563.2,677.8,562.8,678.7,562.9z M689.5,561.6
		c-1.3-0.1-2.5,0.6-3.1,1.8v-1.5H685v12.9h1.4v-5.3c0.6,1.2,1.8,2,3.1,1.9c1.2,0,2.4-0.5,3.1-1.5c0.7-1,1.1-2.2,1-3.4
		c0-1.2-0.3-2.4-1.1-3.4C691.9,562.2,690.7,561.6,689.5,561.6L689.5,561.6z M689.3,562.8c0.9-0.1,1.8,0.4,2.3,1.1
		c0.5,0.8,0.7,1.7,0.7,2.6c0.1,0.9-0.2,1.9-0.7,2.6c-0.5,0.7-1.4,1.1-2.3,1c-0.8,0-1.6-0.3-2-1c-0.6-0.8-0.8-1.7-0.8-2.6v-0.2
		c0-0.9,0.2-1.8,0.7-2.6C687.6,563.2,688.4,562.8,689.3,562.8z M696.8,558.4c-0.3,0-0.6,0.1-0.8,0.3c-0.2,0.2-0.3,0.5-0.3,0.8
		c0,0.3,0.1,0.6,0.3,0.8c0.4,0.4,1.1,0.4,1.5,0c0.2-0.2,0.3-0.5,0.3-0.8c0-0.3-0.1-0.6-0.3-0.8C697.3,558.5,697.1,558.4,696.8,558.4
		L696.8,558.4z M696,561.9v9.3h1.4v-9.3H696z M704.2,561.6c-0.9,0-1.9,0.2-2.7,0.6c-0.8,0.5-1.3,1.3-1.4,2.2l1.4,0.1
		c0.1-0.6,0.4-1,0.9-1.3c0.5-0.3,1.1-0.4,1.7-0.4c1.6,0,2.4,0.8,2.4,2.3v0.5l-2.2,0c-1.1,0-2.3,0.2-3.2,0.8
		c-0.8,0.5-1.3,1.4-1.3,2.4c0,0.7,0.3,1.4,0.9,1.9c0.6,0.5,1.4,0.8,2.2,0.7c0.8,0,1.6-0.2,2.3-0.6c0.6-0.3,1-0.7,1.4-1.2v1.6h1.3v-6
		c0-0.9-0.2-1.8-0.8-2.5C706.4,561.9,705.3,561.6,704.2,561.6L704.2,561.6z M706.6,566.7v0.8c0,0.8-0.4,1.5-1,1.9
		c-0.6,0.6-1.5,0.9-2.3,0.9c-0.5,0-1-0.1-1.4-0.4c-0.3-0.2-0.5-0.6-0.5-1.1c0-1.4,1-2,3.1-2.1L706.6,566.7z M716.4,558.4v12.8h1.5
		v-10.6h0l7.3,10.6h1.5v-12.8h-1.5v10.4h-0.1l-7.3-10.4H716.4L716.4,558.4z M733.3,561.6c-1.3-0.1-2.5,0.5-3.3,1.4
		c-0.8,1-1.2,2.2-1.2,3.5c0,1.3,0.4,2.5,1.2,3.4c0.8,1,2,1.5,3.3,1.5c1.3,0,2.5-0.5,3.3-1.5c1.6-2,1.6-4.9,0-6.9
		C735.8,562.1,734.6,561.6,733.3,561.6L733.3,561.6z M733.3,562.9c0.9,0,1.8,0.4,2.3,1.1c1,1.6,1,3.6,0,5.1
		c-0.5,0.7-1.4,1.2-2.3,1.1c-0.9,0-1.8-0.4-2.3-1.1c-1-1.6-1-3.6,0-5.1C731.5,563.2,732.4,562.8,733.3,562.9L733.3,562.9z
		 M746.6,558.1v5.5c-0.6-1.2-1.8-2-3.1-2c-1.2-0.1-2.4,0.5-3.1,1.5c-0.7,1-1.1,2.2-1,3.4c-0.1,1.2,0.3,2.5,1,3.4
		c0.8,1,1.9,1.5,3.2,1.5c1.3,0.1,2.5-0.6,3.1-1.8v1.5h1.3v-13.1L746.6,558.1L746.6,558.1z M743.8,562.8c0.8,0,1.6,0.4,2,1
		c0.5,0.8,0.8,1.7,0.8,2.6v0.2c0,0.9-0.2,1.8-0.7,2.5c-0.5,0.7-1.3,1.1-2.2,1.1c-0.9,0-1.7-0.4-2.3-1.1c-0.5-0.8-0.7-1.7-0.7-2.6
		c-0.1-0.9,0.2-1.8,0.7-2.6C742,563.2,742.9,562.8,743.8,562.8L743.8,562.8z M754.1,561.6c-1.2,0-2.4,0.5-3.2,1.5
		c-1.6,2.1-1.6,5,0.1,7c0.8,0.9,2,1.4,3.2,1.3c1.1,0,2.1-0.3,3-1.1c0.6-0.6,1.1-1.3,1.3-2.2h-1.4c-0.2,0.6-0.5,1.1-0.9,1.5
		c-0.5,0.4-1.2,0.6-1.8,0.6c-0.8,0-1.6-0.3-2.1-0.9c-0.5-0.7-0.8-1.5-0.8-2.4h7.3c0.1-1.3-0.3-2.7-1.1-3.8
		C756.6,562.1,755.4,561.6,754.1,561.6L754.1,561.6z M754.1,562.9c1.8,0,2.8,1,2.9,3h-5.8c0-0.8,0.4-1.6,0.9-2.2
		C752.6,563.1,753.3,562.8,754.1,562.9L754.1,562.9z"/>
	<path id="Compute" class="st7" d="M759.3,504.9c-1.8-0.1-3.5,0.7-4.6,2c-1,1.3-1.6,3-1.5,4.7c-0.1,1.7,0.4,3.3,1.4,4.6
		c2,2.5,5.6,2.8,8.1,0.8c1.1-0.9,1.8-2.1,2-3.5h-1.4c-0.2,1-0.7,1.9-1.5,2.5c-0.8,0.6-1.7,0.8-2.6,0.8c-1.3,0.1-2.6-0.5-3.4-1.5
		c-0.8-1.1-1.2-2.5-1.1-3.8c-0.1-1.4,0.3-2.7,1.1-3.9c0.8-1,2.1-1.6,3.4-1.6c0.9,0,1.8,0.2,2.6,0.7c0.7,0.5,1.2,1.3,1.4,2.2h1.4
		c-0.1-1.2-0.8-2.3-1.7-3.1C761.9,505.3,760.6,504.9,759.3,504.9z M770.8,508.5c-1.3-0.1-2.5,0.5-3.3,1.4c-0.8,1-1.2,2.2-1.2,3.5
		c0,1.3,0.4,2.5,1.2,3.4c0.8,1,2.1,1.5,3.3,1.5c1.3,0,2.5-0.5,3.3-1.5c1.6-2,1.6-4.9,0-6.9C773.3,508.9,772.1,508.4,770.8,508.5
		L770.8,508.5z M770.8,509.7c0.9,0,1.8,0.4,2.3,1.1c1,1.6,1,3.6,0,5.1c-0.5,0.7-1.4,1.2-2.3,1.1c-0.9,0-1.8-0.4-2.3-1.1
		c-1-1.6-1-3.6,0-5.1C769.1,510.1,769.9,509.6,770.8,509.7L770.8,509.7z M781.3,508.5c-1.1,0-2.1,0.6-2.6,1.5v-1.2h-1.4v9.3h1.4
		v-5.7c0-0.7,0.2-1.3,0.6-1.9c0.4-0.5,1-0.8,1.6-0.8c1.4,0,2.1,0.8,2.1,2.5v5.9h1.4v-5.8c0-0.7,0.2-1.3,0.6-1.8
		c0.4-0.5,0.9-0.7,1.5-0.7c0.6-0.1,1.3,0.2,1.7,0.6c0.4,0.5,0.6,1.2,0.5,1.8v5.9h1.4v-6.1c0-0.9-0.3-1.8-0.9-2.5
		c-0.6-0.6-1.5-1-2.3-0.9c-0.6,0-1.1,0.1-1.6,0.4c-0.5,0.3-1,0.8-1.3,1.3C783.7,509.1,782.5,508.4,781.3,508.5z M797,508.5
		c-1.3-0.1-2.5,0.6-3.1,1.8v-1.5h-1.3v12.9h1.4v-5.2c0.6,1.2,1.8,1.9,3.1,1.9c1.2,0,2.4-0.5,3.1-1.5c0.7-1,1.1-2.2,1-3.4
		c0-1.2-0.3-2.4-1.1-3.4C799.5,509,798.3,508.4,797,508.5z M796.8,509.7c0.9-0.1,1.8,0.4,2.3,1.1c0.5,0.8,0.7,1.7,0.7,2.6
		c0.1,0.9-0.2,1.9-0.7,2.6c-0.5,0.7-1.4,1.1-2.3,1c-0.8,0-1.6-0.3-2-1c-0.6-0.7-0.8-1.7-0.8-2.6v-0.2c0-0.9,0.2-1.8,0.7-2.6
		C795.2,510,796,509.6,796.8,509.7z M803.1,508.7v5.8c0,2.5,1.1,3.8,3.4,3.8c1.2,0,2.4-0.6,3-1.7v1.4h1.4v-9.3h-1.4v5.7
		c-0.1,0.7-0.4,1.4-0.9,1.9c-1,0.9-2.5,1-3.5,0.1c-0.4-0.6-0.6-1.3-0.6-2v-5.7H803.1z M815.7,505.7l-1.4,0.6v2.4h-1.9v1.2h1.9v5.9
		c0,0.6,0.1,1.1,0.4,1.6c0.4,0.4,1,0.6,1.6,0.6h1.4v-1.2h-1.2c-0.3,0-0.5-0.1-0.7-0.2c-0.2-0.2-0.2-0.5-0.2-0.7v-5.9h2.3v-1.2h-2.3
		V505.7L815.7,505.7z M823.4,508.5c-1.2-0.1-2.4,0.5-3.2,1.5c-0.8,1-1.2,2.2-1.2,3.4c-0.1,1.3,0.4,2.6,1.2,3.6
		c0.8,0.9,2,1.4,3.2,1.3c1.1,0,2.1-0.3,3-1c0.6-0.6,1.1-1.4,1.3-2.2h-1.4c-0.2,0.6-0.5,1.1-0.9,1.5c-0.5,0.4-1.2,0.6-1.8,0.6
		c-0.8,0-1.6-0.3-2.1-0.9c-0.5-0.7-0.8-1.5-0.8-2.4h7.3c0-1.3-0.3-2.7-1.1-3.8C826,508.9,824.7,508.4,823.4,508.5z M823.4,509.7
		c1.8,0,2.8,1,2.9,3h-5.8c0-0.8,0.4-1.6,0.9-2.2C822,509.9,822.7,509.6,823.4,509.7L823.4,509.7z"/>
	<path id="Storage" class="st7" d="M763.3,336.4c-1.2-0.1-2.3,0.3-3.3,0.9c-0.9,0.5-1.5,1.5-1.4,2.6c0,1,0.5,2,1.5,2.5
		c1,0.4,1.9,0.8,2.9,1c0.9,0.2,1.8,0.5,2.7,0.9c0.8,0.3,1.3,1.1,1.3,1.9c0,0.7-0.4,1.3-1,1.6c-0.8,0.4-1.7,0.6-2.6,0.6
		c-0.9,0.1-1.8-0.2-2.6-0.7c-0.7-0.6-1.1-1.5-1.2-2.5h-1.4c0,1.4,0.6,2.7,1.7,3.5c1.1,0.7,2.3,1,3.6,1c1.3,0.1,2.5-0.3,3.6-1
		c0.9-0.6,1.4-1.6,1.3-2.7c0-1.1-0.6-2.2-1.6-2.7c-1.1-0.5-2.2-0.9-3.3-1.2c-0.8-0.2-1.6-0.5-2.4-0.8c-0.9-0.4-1.3-1.4-1-2.3
		c0.2-0.4,0.4-0.7,0.8-0.9c0.7-0.3,1.5-0.5,2.2-0.5c0.9-0.1,1.7,0.2,2.4,0.7c0.6,0.5,1,1.3,1.1,2.1h1.4c0-1.2-0.6-2.3-1.5-3.1
		C765.7,336.6,764.5,336.3,763.3,336.4z M772.7,337.2l-1.4,0.6v2.4h-1.9v1.2h1.9v5.9c0,0.6,0.1,1.1,0.4,1.6c0.4,0.4,1,0.7,1.6,0.6
		h1.4v-1.2h-1.2c-0.2,0-0.5-0.1-0.7-0.2c-0.2-0.2-0.2-0.5-0.2-0.7v-5.9h2.3v-1.2h-2.3V337.2L772.7,337.2z M780.7,339.9
		c-1.3-0.1-2.5,0.5-3.3,1.4c-0.8,1-1.2,2.2-1.2,3.5c0,1.3,0.4,2.5,1.2,3.4c0.8,1,2,1.5,3.3,1.5c1.3,0,2.5-0.5,3.3-1.5
		c1.6-2,1.6-4.9,0-6.9C783.2,340.4,782,339.9,780.7,339.9z M780.7,341.1c0.9,0,1.8,0.4,2.3,1.1c1,1.6,1,3.6,0,5.1
		c-0.5,0.7-1.4,1.2-2.3,1.1c-0.9,0-1.8-0.4-2.3-1.1c-0.5-0.7-0.8-1.6-0.7-2.6c0-0.9,0.2-1.8,0.7-2.6
		C778.9,341.5,779.8,341.1,780.7,341.1z M791.2,339.9c-0.6,0-1.2,0.2-1.7,0.6c-0.4,0.3-0.8,0.8-1,1.3v-1.6h-1.4v9.3h1.4v-4.9
		c0-0.8,0.2-1.6,0.7-2.2c0.4-0.6,1.1-1,1.8-1c0.5,0,0.9,0.1,1.4,0.2v-1.4C792.1,340,791.6,339.9,791.2,339.9z M797.7,339.9
		c-0.9,0-1.9,0.2-2.7,0.6c-0.8,0.5-1.3,1.3-1.4,2.2l1.4,0.1c0.1-0.6,0.4-1,0.9-1.3c0.5-0.3,1.1-0.4,1.7-0.4c1.1-0.2,2.2,0.6,2.4,1.7
		c0,0.2,0,0.4,0,0.6v0.5l-2.2,0c-1.1,0-2.2,0.2-3.2,0.8c-0.8,0.5-1.3,1.4-1.3,2.4c0,0.7,0.3,1.4,0.9,1.9c0.6,0.5,1.4,0.7,2.2,0.7
		c0.8,0,1.6-0.2,2.3-0.6c0.6-0.3,1-0.7,1.4-1.2v1.6h1.3v-6c0-0.9-0.2-1.8-0.8-2.5C799.9,340.2,798.8,339.8,797.7,339.9z M800,345
		v0.8c0,0.8-0.4,1.5-1,1.9c-0.6,0.6-1.5,0.9-2.3,0.9c-0.5,0-1-0.1-1.4-0.4c-0.3-0.2-0.5-0.6-0.5-1.1c0-1.4,1.1-2,3.1-2.1L800,345z
		 M807.5,339.9c-1.2-0.1-2.3,0.5-3.1,1.4c-1.5,2-1.5,4.7,0,6.6c0.8,0.9,1.9,1.4,3.1,1.3c1.3,0,2.5-0.7,3.1-1.9v1.6
		c0,2.1-0.9,3.1-2.8,3.1c-0.7,0-1.3-0.1-1.9-0.5c-0.4-0.3-0.7-0.8-0.8-1.4h-1.4c0.1,0.9,0.5,1.7,1.2,2.3c0.8,0.6,1.9,0.8,2.9,0.8
		c2.8,0,4.2-1.5,4.2-4.5v-8.6h-1.4v1.6C810.1,340.6,808.9,339.9,807.5,339.9L807.5,339.9z M807.8,341.1c0.8,0,1.7,0.3,2.2,1
		c1,1.5,1,3.5,0,5c-0.5,0.7-1.3,1-2.2,1c-0.9,0.1-1.7-0.3-2.2-1.1c-0.5-0.7-0.7-1.5-0.7-2.4c0-0.9,0.2-1.8,0.8-2.5
		C806.1,341.4,806.9,341.1,807.8,341.1L807.8,341.1z M818.2,339.9c-1.2,0-2.4,0.5-3.2,1.4c-1.6,2.1-1.6,5,0.1,7
		c0.8,0.9,2,1.4,3.2,1.3c1.1,0,2.1-0.3,3-1.1c0.6-0.6,1.1-1.3,1.3-2.2H821c-0.2,0.6-0.5,1.1-0.9,1.5c-0.5,0.4-1.2,0.6-1.8,0.6
		c-0.8,0-1.6-0.3-2.1-0.9c-0.5-0.7-0.8-1.6-0.8-2.4h7.3c0-1.3-0.3-2.7-1.1-3.8C820.7,340.4,819.5,339.8,818.2,339.9L818.2,339.9z
		 M818.2,341.1c1.8,0,2.8,1,2.9,3h-5.8c0-0.8,0.4-1.6,0.9-2.2C816.7,341.4,817.5,341.1,818.2,341.1z"/>
	<path id="L2" class="st5" d="M45.4,579.3v12.8h8.9v-1.3h-7.4v-11.6H45.4L45.4,579.3z M60.3,579.1c-1.2,0-2.3,0.4-3.1,1.3
		c-0.8,0.9-1.3,2.2-1.2,3.4h1.5c0-0.9,0.2-1.8,0.8-2.6c0.5-0.6,1.2-1,2-0.9c0.7,0,1.4,0.2,2,0.6c0.5,0.5,0.7,1.1,0.7,1.8
		c0,0.9-0.4,1.7-1,2.3c-0.6,0.6-1.3,1.1-2,1.6c-1,0.6-2,1.4-2.8,2.3c-0.8,0.9-1.3,2-1.3,3.2h8.6v-1.3h-6.7c0.2-0.9,1.2-1.9,2.8-2.9
		c1-0.6,1.8-1.3,2.7-2.1c0.8-0.8,1.2-1.9,1.3-3c0-1-0.4-2-1.2-2.7C62.4,579.4,61.4,579,60.3,579.1z"/>
	<path id="Ethereum" class="st5" d="M43.9,84v12.8h9.4v-1.3h-7.9v-4.7h7.2v-1.3h-7.2v-4.3H53V84H43.9L43.9,84z M57.7,84.6l-1.4,0.6
		v2.4h-1.9v1.2h1.9v5.9c0,0.6,0.1,1.1,0.5,1.6c0.4,0.4,1,0.6,1.6,0.6h1.4v-1.2h-1.2c-0.3,0-0.5-0.1-0.7-0.2
		c-0.2-0.2-0.2-0.5-0.2-0.7v-5.9H60v-1.2h-2.3L57.7,84.6L57.7,84.6z M61.6,83.8v13.1H63v-5.3c0-0.8,0.2-1.6,0.7-2.2
		c0.4-0.6,1.1-0.9,1.8-0.9c0.7,0,1.3,0.2,1.8,0.7c0.4,0.6,0.7,1.3,0.6,2v5.6h1.4V91c0.1-1-0.2-2-0.9-2.7c-0.7-0.7-1.6-1-2.5-1
		c-1.3,0-2.4,0.7-3,1.8v-5.3L61.6,83.8L61.6,83.8z M75.4,87.3c-1.2,0-2.4,0.5-3.2,1.5c-1.6,2.1-1.6,5,0.1,7c0.8,0.9,2,1.4,3.2,1.3
		c1.1,0,2.1-0.3,3-1c0.6-0.6,1.1-1.3,1.3-2.2h-1.4c-0.2,0.6-0.5,1.1-0.9,1.4c-0.5,0.4-1.2,0.6-1.9,0.6c-0.8,0-1.6-0.3-2.1-0.9
		c-0.5-0.7-0.8-1.5-0.8-2.4h7.3c0-1.3-0.3-2.7-1.1-3.8C78,87.8,76.7,87.2,75.4,87.3z M75.5,88.5c1.8,0,2.8,1,2.9,3h-5.8
		c0-0.8,0.4-1.6,0.9-2.2C74,88.8,74.7,88.5,75.5,88.5z M85.6,87.3c-0.6,0-1.2,0.2-1.7,0.6c-0.4,0.3-0.8,0.8-1,1.3v-1.6h-1.4v9.3H83
		v-4.9c0-0.8,0.2-1.6,0.7-2.2c0.4-0.6,1.1-1,1.8-0.9c0.5,0,0.9,0.1,1.4,0.2v-1.4C86.5,87.4,86.1,87.3,85.6,87.3z M92,87.3
		c-1.2,0-2.4,0.5-3.2,1.5c-1.6,2.1-1.6,5,0.1,7c0.8,0.9,2,1.4,3.2,1.3c1.1,0,2.1-0.3,3-1c0.6-0.6,1.1-1.3,1.3-2.2h-1.4
		c-0.2,0.6-0.5,1.1-0.9,1.4c-0.5,0.4-1.2,0.6-1.9,0.6c-0.8,0-1.6-0.3-2.1-0.9c-0.5-0.7-0.8-1.5-0.8-2.4h7.3c0-1.3-0.3-2.7-1.1-3.8
		C94.5,87.8,93.3,87.2,92,87.3z M92,88.5c1.8,0,2.8,1,2.9,3h-5.8c0-0.8,0.4-1.6,0.9-2.2C90.5,88.8,91.2,88.5,92,88.5z M98.1,87.6
		v5.8c0,2.5,1.1,3.8,3.4,3.8c1.2,0,2.4-0.6,3-1.7v1.4h1.4v-9.3h-1.4v5.7c-0.1,0.7-0.4,1.4-0.9,1.9c-1,0.9-2.5,1-3.5,0.1
		c-0.4-0.6-0.6-1.3-0.6-2v-5.7H98.1L98.1,87.6z M112.2,87.3c-1.1,0-2.1,0.6-2.6,1.5v-1.2h-1.4v9.3h1.4v-5.7c0-0.7,0.2-1.3,0.6-1.9
		c0.4-0.5,1-0.8,1.6-0.8c1.4,0,2.1,0.8,2.1,2.5v5.9h1.4V91c0-0.7,0.2-1.3,0.6-1.8c0.4-0.5,0.9-0.7,1.5-0.7c0.6-0.1,1.3,0.2,1.7,0.6
		c0.4,0.5,0.6,1.2,0.5,1.8v5.9h1.4v-6.1c0-0.9-0.3-1.8-0.9-2.5c-0.6-0.6-1.5-1-2.4-0.9c-0.6,0-1.1,0.1-1.6,0.4
		c-0.5,0.3-1,0.8-1.3,1.3C114.7,87.9,113.5,87.2,112.2,87.3z"/>

		<linearGradient id="Rect_4_Copy_3_1_" gradientUnits="userSpaceOnUse" x1="636.006" y1="-2476" x2="636.006" y2="-2429" gradientTransform="matrix(1 0 0 -1 -305 -2068.7649)">
		<stop  offset="0" style="stop-color:#74FBE8"/>
		<stop  offset="1" style="stop-color:#81FAA3"/>
	</linearGradient>
	<path id="Rect_4_Copy_3" class="st8" d="M241,360.2h180c2.2,0,4,1.8,4,4v39c0,2.2-1.8,4-4,4H241c-2.2,0-4-1.8-4-4v-39
		C237,362,238.8,360.2,241,360.2z"/>

		<linearGradient id="Rect_4_Copy_10_1_" gradientUnits="userSpaceOnUse" x1="636.006" y1="-2590" x2="636.006" y2="-2543" gradientTransform="matrix(1 0 0 -1 -305 -2068.7649)">
		<stop  offset="0" style="stop-color:#74FBE8"/>
		<stop  offset="1" style="stop-color:#81FAA3"/>
	</linearGradient>
	<path id="Rect_4_Copy_10" class="st9" d="M241,474.2h180c2.2,0,4,1.8,4,4v39c0,2.2-1.8,4-4,4H241c-2.2,0-4-1.8-4-4v-39
		C237,476,238.8,474.2,241,474.2z"/>

		<linearGradient id="Rect_4_Copy_8_1_" gradientUnits="userSpaceOnUse" x1="636.006" y1="-2410" x2="636.006" y2="-2363" gradientTransform="matrix(1 0 0 -1 -305 -2068.7649)">
		<stop  offset="0" style="stop-color:#74FBE8"/>
		<stop  offset="1" style="stop-color:#81FAA3"/>
	</linearGradient>
	<path id="Rect_4_Copy_8" class="st10" d="M241,294.2h180c2.2,0,4,1.8,4,4v39c0,2.2-1.8,4-4,4H241c-2.2,0-4-1.8-4-4v-39
		C237,296,238.8,294.2,241,294.2z"/>

		<linearGradient id="Rect_4_Copy_9_1_" gradientUnits="userSpaceOnUse" x1="636.006" y1="-2344" x2="636.006" y2="-2297" gradientTransform="matrix(1 0 0 -1 -305 -2068.7649)">
		<stop  offset="0" style="stop-color:#74FBE8"/>
		<stop  offset="1" style="stop-color:#81FAA3"/>
	</linearGradient>
	<path id="Rect_4_Copy_9" class="st11" d="M241,228.2h180c2.2,0,4,1.8,4,4v39c0,2.2-1.8,4-4,4H241c-2.2,0-4-1.8-4-4v-39
		C237,230,238.8,228.2,241,228.2z"/>
	<path id="DAPP" class="st5" d="M308.4,245.6v12.8h4.5c1.7,0.1,3.4-0.5,4.6-1.8c1.1-1.3,1.6-3,1.5-4.6c0.1-1.7-0.4-3.3-1.4-4.7
		c-1.2-1.2-2.9-1.9-4.6-1.8L308.4,245.6L308.4,245.6z M309.8,246.9h2.9c1.4-0.1,2.7,0.4,3.7,1.3c0.8,1.1,1.2,2.5,1.1,3.8
		c0.1,1.4-0.3,2.7-1.2,3.8c-1,0.9-2.4,1.4-3.8,1.3h-2.7L309.8,246.9L309.8,246.9z M324.8,245.6l-5.1,12.8h1.6l1.4-3.6h5.9l1.4,3.6
		h1.6l-5.1-12.8H324.8L324.8,245.6z M323.2,253.6l2.5-6.4h0.1l2.4,6.4H323.2z M332.9,245.6v12.8h1.5v-5.2h3.8c2.9,0,4.4-1.3,4.4-3.8
		c0-2.5-1.5-3.8-4.4-3.8H332.9L332.9,245.6z M334.3,246.9h3.7c0.8-0.1,1.6,0.2,2.3,0.6c0.5,0.5,0.8,1.2,0.8,1.9
		c0.1,0.7-0.2,1.4-0.7,1.9c-0.7,0.5-1.5,0.7-2.3,0.6h-3.7V246.9L334.3,246.9z M344.4,245.6v12.8h1.5v-5.2h3.8c3,0,4.4-1.3,4.4-3.8
		c0-2.5-1.5-3.8-4.4-3.8H344.4L344.4,245.6z M345.9,246.9h3.7c0.8-0.1,1.6,0.2,2.3,0.6c0.5,0.5,0.8,1.2,0.8,1.9
		c0.1,0.7-0.2,1.4-0.7,1.9c-0.7,0.5-1.5,0.7-2.3,0.6h-3.7L345.9,246.9L345.9,246.9z"/>
	<path id="DAPP-2" class="st5" d="M308.4,310.8v12.8h4.5c1.7,0.1,3.4-0.5,4.6-1.8c1.1-1.3,1.6-3,1.5-4.7c0.1-1.7-0.4-3.3-1.4-4.7
		c-1.2-1.2-2.9-1.9-4.6-1.8L308.4,310.8L308.4,310.8z M309.8,312.1h2.9c1.4-0.1,2.7,0.4,3.7,1.3c0.8,1.1,1.2,2.5,1.1,3.8
		c0.1,1.4-0.3,2.7-1.2,3.8c-1,0.9-2.4,1.4-3.8,1.3h-2.7L309.8,312.1L309.8,312.1z M324.8,310.8l-5.1,12.8h1.6l1.4-3.6h5.9l1.4,3.6
		h1.6l-5.1-12.8H324.8L324.8,310.8z M323.2,318.8l2.5-6.4h0.1l2.4,6.4H323.2z M332.9,310.8v12.8h1.5v-5.2h3.8c2.9,0,4.4-1.3,4.4-3.8
		s-1.5-3.8-4.4-3.8H332.9L332.9,310.8z M334.3,312.1h3.7c0.8-0.1,1.6,0.2,2.3,0.6c0.5,0.5,0.8,1.2,0.8,1.9c0.1,0.7-0.2,1.4-0.7,1.9
		c-0.7,0.5-1.5,0.7-2.3,0.6h-3.7V312.1L334.3,312.1z M344.4,310.8v12.8h1.5v-5.2h3.8c3,0,4.4-1.3,4.4-3.8s-1.5-3.8-4.4-3.8H344.4
		L344.4,310.8z M345.9,312.1h3.7c0.8-0.1,1.6,0.2,2.3,0.6c0.5,0.5,0.8,1.2,0.8,1.9c0.1,0.7-0.2,1.4-0.7,1.9
		c-0.7,0.5-1.5,0.7-2.3,0.6h-3.7L345.9,312.1L345.9,312.1z"/>
	<path id="DAPP-3" class="st5" d="M308.4,378.2V391h4.5c1.7,0.1,3.4-0.5,4.6-1.8c1.1-1.3,1.6-3,1.5-4.7c0.1-1.7-0.4-3.3-1.4-4.7
		c-1.2-1.2-2.9-1.9-4.6-1.8L308.4,378.2L308.4,378.2z M309.8,379.5h2.9c1.4-0.1,2.7,0.4,3.7,1.3c0.8,1.1,1.2,2.5,1.1,3.8
		c0.1,1.4-0.3,2.7-1.2,3.8c-1,1-2.4,1.4-3.8,1.3h-2.7L309.8,379.5L309.8,379.5z M324.8,378.2l-5.1,12.8h1.6l1.4-3.6h5.9l1.4,3.6h1.6
		l-5.1-12.8H324.8L324.8,378.2z M323.2,386.2l2.5-6.4h0.1l2.4,6.4H323.2z M332.9,378.2V391h1.5v-5.2h3.8c2.9,0,4.4-1.3,4.4-3.8
		s-1.5-3.8-4.4-3.8H332.9L332.9,378.2z M334.3,379.5h3.7c0.8-0.1,1.6,0.2,2.3,0.6c0.5,0.5,0.8,1.2,0.8,1.9c0.1,0.7-0.2,1.4-0.7,1.9
		c-0.7,0.5-1.5,0.7-2.3,0.6h-3.7V379.5L334.3,379.5z M344.4,378.2V391h1.5v-5.2h3.8c3,0,4.4-1.3,4.4-3.8s-1.5-3.8-4.4-3.8H344.4
		L344.4,378.2z M345.9,379.5h3.7c0.8-0.1,1.6,0.2,2.3,0.6c0.5,0.5,0.8,1.2,0.8,1.9c0.1,0.7-0.2,1.4-0.7,1.9
		c-0.7,0.5-1.5,0.7-2.3,0.6h-3.7L345.9,379.5L345.9,379.5z"/>
	<path id="DAPP-4" class="st5" d="M308.4,491.7v12.9h4.5c1.7,0.1,3.4-0.5,4.6-1.8c1.1-1.3,1.6-3,1.5-4.7c0.1-1.7-0.4-3.3-1.4-4.6
		c-1.2-1.2-2.9-1.9-4.6-1.8L308.4,491.7L308.4,491.7z M309.8,493h2.9c1.4-0.1,2.7,0.4,3.7,1.3c0.8,1.1,1.2,2.5,1.1,3.8
		c0.1,1.4-0.3,2.7-1.2,3.8c-1,0.9-2.4,1.4-3.8,1.3h-2.7L309.8,493L309.8,493z M324.8,491.7l-5.1,12.9h1.6l1.4-3.6h5.9l1.4,3.6h1.6
		l-5.1-12.9H324.8L324.8,491.7z M323.2,499.7l2.5-6.4h0.1l2.4,6.4H323.2z M332.9,491.7v12.9h1.5v-5.3h3.8c2.9,0,4.4-1.3,4.4-3.8
		c0-2.5-1.5-3.8-4.4-3.8H332.9L332.9,491.7z M334.3,493h3.7c0.8-0.1,1.6,0.2,2.3,0.6c0.5,0.5,0.8,1.2,0.8,1.9
		c0.1,0.7-0.2,1.4-0.7,1.9c-0.7,0.5-1.5,0.7-2.3,0.6h-3.7V493L334.3,493z M344.4,491.7v12.9h1.5v-5.3h3.8c3,0,4.4-1.3,4.4-3.8
		c0-2.5-1.5-3.8-4.4-3.8H344.4L344.4,491.7z M345.9,493h3.7c0.8-0.1,1.6,0.2,2.3,0.6c0.5,0.5,0.8,1.2,0.8,1.9
		c0.1,0.7-0.2,1.4-0.7,1.9c-0.7,0.5-1.5,0.7-2.3,0.6h-3.7L345.9,493L345.9,493z"/>
	<path id="Rect_4_Copy_13" class="st12" d="M121.5,254.7h80v-6h-80V254.7L121.5,254.7z"/>
	<path id="Triangle_1_Copy_15" class="st12" d="M213.5,251.8l-11,8.5v-17L213.5,251.8z"/>
	<path id="Triangle_1_Copy_16" class="st12" d="M113.5,251.7l11-8.5v17L113.5,251.7z"/>
	<path id="Rect_4_Copy_14" class="st12" d="M121.5,320.7h80v-6h-80V320.7L121.5,320.7z"/>
	<path id="Triangle_1_Copy_17" class="st12" d="M213.5,317.8l-11,8.5v-17L213.5,317.8z"/>
	<path id="Triangle_1_Copy_17-2" class="st12" d="M113.5,317.7l11-8.5v17L113.5,317.7z"/>
	<g>
		<path id="Rect_5" class="st12" d="M555.5,205.7h6v382h-6V205.7L555.5,205.7z"/>
		<path id="Rect_4_Copy_20" class="st12" d="M516.5,400.7h80v-6h-80V400.7L516.5,400.7z"/>
		<path id="Triangle_1_Copy_20" class="st12" d="M608.5,397.8l-11,8.5v-17L608.5,397.8z"/>
		<path id="Triangle_1_Copy_20-2" class="st12" d="M508.5,397.7l11-8.5v17L508.5,397.7z"/>
	</g>
	<path id="Rect_4_Copy_15" class="st12" d="M121.5,386.7h80v-6h-80V386.7L121.5,386.7z"/>
	<path id="Triangle_1_Copy_18" class="st12" d="M213.5,383.8l-11,8.5v-17L213.5,383.8z"/>
	<path id="Triangle_1_Copy_18-2" class="st12" d="M113.5,383.7l11-8.5v17L113.5,383.7z"/>
	<path id="Rect_4_Copy_16" class="st12" d="M121.5,500.7h80v-6h-80V500.7L121.5,500.7z"/>
	<path id="Triangle_1_Copy_19" class="st12" d="M213.5,497.8l-11,8.5v-17L213.5,497.8z"/>
	<path id="Triangle_1_Copy_19-2" class="st12" d="M113.5,497.7l11-8.5v17L113.5,497.7z"/>
	<path id="User" class="st5" d="M44.4,267.4v6.9c-0.1,1.2,0.3,2.4,1.1,3.4c2,1.6,4.8,1.5,6.7,0c0.8-0.9,1.2-2.1,1.1-3.4v-6.9H52v6.9
		c0.1,0.9-0.2,1.8-0.7,2.5c-0.7,0.6-1.5,0.9-2.5,0.9c-0.9,0.1-1.8-0.2-2.5-0.9c-0.5-0.7-0.8-1.6-0.7-2.5v-6.9H44.4L44.4,267.4z
		 M58.3,270.3c-0.8,0-1.6,0.2-2.2,0.6c-0.6,0.3-0.9,1-0.9,1.6c0,0.7,0.3,1.3,0.9,1.6c0.6,0.3,1.3,0.6,2,0.7c0.6,0.1,1.2,0.3,1.7,0.5
		c0.4,0.2,0.8,0.6,0.8,1.1c0,0.9-0.7,1.4-2.2,1.4c-0.5,0-1.1-0.1-1.6-0.4c-0.4-0.4-0.6-0.9-0.7-1.4H55c0.2,1.9,1.4,2.8,3.5,2.8
		c2.3,0,3.4-0.9,3.4-2.5c0-0.7-0.4-1.3-1-1.7c-0.7-0.4-1.4-0.6-2.1-0.8c-0.6-0.1-1.1-0.3-1.7-0.5c-0.4-0.1-0.7-0.5-0.7-0.9
		c0-0.4,0.2-0.7,0.5-0.9c0.4-0.2,0.9-0.4,1.3-0.3c0.5,0,1,0.1,1.5,0.4c0.3,0.3,0.6,0.7,0.6,1.1h1.2
		C61.4,271.1,60.3,270.3,58.3,270.3L58.3,270.3z M66.7,270.3c-1.1,0-2.1,0.4-2.8,1.3c-1.4,1.8-1.4,4.4,0,6.2
		c0.7,0.8,1.7,1.2,2.8,1.1c1,0,1.9-0.3,2.6-0.9c0.6-0.5,0.9-1.2,1.1-1.9h-1.3c-0.2,0.5-0.4,0.9-0.8,1.3c-0.5,0.3-1,0.5-1.6,0.5
		c-0.7,0-1.4-0.2-1.8-0.8c-0.5-0.6-0.7-1.4-0.7-2.1h6.4c0-1.2-0.3-2.3-0.9-3.3C69,270.7,67.9,270.2,66.7,270.3L66.7,270.3z
		 M66.8,271.4c1.5,0,2.4,0.9,2.6,2.6h-5.1c0-0.7,0.3-1.4,0.8-1.9C65.5,271.6,66.1,271.3,66.8,271.4L66.8,271.4z M75.7,270.3
		c-0.5,0-1.1,0.2-1.5,0.5c-0.4,0.3-0.7,0.7-0.9,1.1v-1.4h-1.2v8.1h1.2v-4.3c0-0.7,0.2-1.4,0.6-1.9c0.4-0.5,1-0.8,1.6-0.8
		c0.4,0,0.8,0.1,1.2,0.2v-1.3C76.5,270.4,76.1,270.3,75.7,270.3L75.7,270.3z"/>
	<linearGradient id="Shape_1_1_" gradientUnits="userSpaceOnUse" x1="44.748" y1="246.6099" x2="76.748" y2="246.6099">
		<stop  offset="0" style="stop-color:#74FBE8"/>
		<stop  offset="0.7813" style="stop-color:#7EFAB3"/>
		<stop  offset="1" style="stop-color:#81FAA3"/>
	</linearGradient>
	<path id="Shape_1" class="st13" d="M64.4,263.1h-7.3c-6.9,0-12.4,0-12.4-3.2v-0.6c0-5.9,5.5-10.8,12.4-10.8h7.3
		c6.8,0,12.4,4.8,12.4,10.8v0.6C76.7,263.1,71,263.1,64.4,263.1L64.4,263.1z M57,250.3c-5.7,0-10.4,4.1-10.4,9.1v0.6
		c0,1.3,6,1.3,10.4,1.3h7.4c3.6,0,10.4,0,10.4-1.3v-0.6c0-5-4.7-9.1-10.4-9.1H57z M60.4,247.2c-5.4,0-9.8-3.8-9.8-8.6
		s4.4-8.6,9.8-8.6s9.8,3.8,9.8,8.6S65.8,247.2,60.4,247.2L60.4,247.2z M52.6,238.6c0,3.7,3.5,6.8,7.8,6.8s7.8-3,7.8-6.8
		s-3.5-6.8-7.8-6.8S52.6,234.9,52.6,238.6L52.6,238.6z"/>
	<linearGradient id="Shape_1_Copy_2_1_" gradientUnits="userSpaceOnUse" x1="44.748" y1="311.6099" x2="76.748" y2="311.6099">
		<stop  offset="0" style="stop-color:#74FBE8"/>
		<stop  offset="0" style="stop-color:#74FBE8"/>
		<stop  offset="0" style="stop-color:#74FBE8"/>
		<stop  offset="0.9898" style="stop-color:#81FAA3"/>
	</linearGradient>
	<path id="Shape_1_Copy_2" class="st14" d="M64.4,328.1h-7.3c-6.9,0-12.4,0-12.4-3.2v-0.6c0-5.9,5.5-10.8,12.4-10.8h7.3
		c6.8,0,12.4,4.8,12.4,10.8v0.6C76.7,328.1,71,328.1,64.4,328.1L64.4,328.1z M57,315.3c-5.7,0-10.4,4.1-10.4,9.1v0.6
		c0,1.3,6,1.3,10.4,1.3h7.4c3.6,0,10.4,0,10.4-1.3v-0.6c0-5-4.7-9.1-10.4-9.1H57z M60.4,312.2c-5.4,0-9.8-3.8-9.8-8.6
		s4.4-8.6,9.8-8.6s9.8,3.8,9.8,8.6S65.8,312.2,60.4,312.2L60.4,312.2z M52.6,303.6c0,3.7,3.5,6.8,7.8,6.8s7.8-3,7.8-6.8
		s-3.5-6.8-7.8-6.8S52.6,299.9,52.6,303.6L52.6,303.6z"/>
	<linearGradient id="Shape_1_Copy_4_2_" gradientUnits="userSpaceOnUse" x1="44.748" y1="492.6099" x2="76.748" y2="492.6099">
		<stop  offset="0" style="stop-color:#FFF21F"/>
		<stop  offset="0" style="stop-color:#F5F32D"/>
		<stop  offset="0" style="stop-color:#D3F55F"/>
		<stop  offset="0" style="stop-color:#B6F789"/>
		<stop  offset="0" style="stop-color:#9EF8AB"/>
		<stop  offset="0" style="stop-color:#8CF9C6"/>
		<stop  offset="0" style="stop-color:#7EFAD9"/>
		<stop  offset="0" style="stop-color:#77FBE4"/>
		<stop  offset="0" style="stop-color:#74FBE8"/>
		<stop  offset="1" style="stop-color:#81FAA3"/>
	</linearGradient>
	<path id="Shape_1_Copy_4" class="st15" d="M64.4,509.1h-7.3c-6.9,0-12.4,0-12.4-3.2v-0.6c0-5.9,5.5-10.8,12.4-10.8h7.3
		c6.8,0,12.4,4.8,12.4,10.8v0.6C76.7,509.1,71,509.1,64.4,509.1L64.4,509.1z M57,496.3c-5.7,0-10.4,4.1-10.4,9v0.6
		c0,1.3,6,1.3,10.4,1.3h7.4c3.6,0,10.4,0,10.4-1.3v-0.6c0-5-4.7-9-10.4-9H57z M60.4,493.2c-5.4,0-9.8-3.8-9.8-8.6s4.4-8.6,9.8-8.6
		s9.8,3.8,9.8,8.6S65.8,493.2,60.4,493.2L60.4,493.2z M52.6,484.6c0,3.7,3.5,6.8,7.8,6.8s7.8-3,7.8-6.8s-3.5-6.8-7.8-6.8
		S52.6,480.9,52.6,484.6L52.6,484.6z"/>
	<path id="User-2" class="st5" d="M44.4,332.6v6.9c-0.1,1.2,0.3,2.4,1.1,3.4c2,1.6,4.8,1.6,6.7,0c0.8-0.9,1.2-2.1,1.1-3.4v-6.9H52
		v6.9c0.1,0.9-0.2,1.8-0.7,2.5c-0.7,0.6-1.5,1-2.5,0.9c-0.9,0.1-1.8-0.2-2.5-0.9c-0.5-0.7-0.8-1.6-0.7-2.5v-6.9H44.4L44.4,332.6z
		 M58.3,335.5c-0.8,0-1.6,0.2-2.2,0.6c-0.6,0.3-0.9,1-0.9,1.6c0,0.7,0.3,1.3,0.9,1.6c0.6,0.3,1.3,0.6,2,0.7c0.6,0.1,1.2,0.3,1.7,0.5
		c0.4,0.2,0.8,0.6,0.8,1.1c0,0.9-0.7,1.4-2.2,1.4c-0.5,0-1.1-0.1-1.6-0.4c-0.4-0.4-0.6-0.9-0.7-1.4H55c0.2,1.9,1.4,2.8,3.5,2.8
		c2.3,0,3.4-0.9,3.4-2.5c0-0.7-0.4-1.3-1-1.7c-0.7-0.4-1.4-0.6-2.1-0.8c-0.6-0.1-1.1-0.3-1.7-0.5c-0.4-0.1-0.7-0.5-0.7-0.9
		c0-0.4,0.2-0.7,0.5-0.9c0.4-0.2,0.9-0.4,1.3-0.3c0.5,0,1,0.1,1.5,0.4c0.3,0.3,0.6,0.7,0.6,1.1h1.2
		C61.4,336.3,60.3,335.5,58.3,335.5L58.3,335.5z M66.7,335.5c-1.1,0-2.1,0.4-2.8,1.3c-1.4,1.8-1.4,4.4,0,6.2
		c0.7,0.8,1.7,1.2,2.8,1.1c0.9,0,1.9-0.3,2.6-0.9c0.6-0.5,0.9-1.2,1.1-1.9h-1.3c-0.2,0.5-0.4,0.9-0.8,1.3c-0.5,0.3-1,0.5-1.6,0.5
		c-0.7,0-1.4-0.2-1.8-0.8c-0.5-0.6-0.7-1.4-0.7-2.1h6.4c0-1.2-0.3-2.3-0.9-3.3C69,335.9,67.9,335.4,66.7,335.5L66.7,335.5z
		 M66.8,336.5c1.5,0,2.4,0.9,2.6,2.6h-5.1c0-0.7,0.3-1.4,0.8-1.9C65.5,336.8,66.1,336.5,66.8,336.5L66.8,336.5z M75.7,335.5
		c-0.5,0-1.1,0.2-1.5,0.5c-0.4,0.3-0.7,0.7-0.9,1.1v-1.4h-1.2v8.1h1.2v-4.3c0-0.7,0.2-1.4,0.6-1.9c0.4-0.5,1-0.8,1.6-0.8
		c0.4,0,0.8,0.1,1.2,0.2v-1.3C76.5,335.5,76.1,335.5,75.7,335.5z"/>
	<path id="User-3" class="st5" d="M44.4,400v6.9c-0.1,1.2,0.3,2.4,1.1,3.4c2,1.6,4.8,1.6,6.7,0c0.8-0.9,1.2-2.1,1.1-3.4V400H52v6.9
		c0.1,0.9-0.2,1.8-0.7,2.5c-0.7,0.6-1.5,1-2.5,0.9c-0.9,0.1-1.8-0.2-2.5-0.9c-0.5-0.7-0.8-1.6-0.7-2.5V400H44.4L44.4,400z
		 M58.3,402.9c-0.8,0-1.6,0.2-2.2,0.6c-0.6,0.3-0.9,1-0.9,1.6c0,0.7,0.3,1.3,0.9,1.6c0.6,0.3,1.3,0.6,2,0.7c0.6,0.1,1.2,0.3,1.7,0.5
		c0.4,0.2,0.8,0.6,0.8,1.1c0,0.9-0.7,1.4-2.2,1.4c-0.5,0-1.1-0.1-1.6-0.4c-0.4-0.4-0.6-0.9-0.7-1.4H55c0.2,1.9,1.4,2.8,3.5,2.8
		c2.3,0,3.4-0.9,3.4-2.5c0-0.7-0.4-1.3-1-1.7c-0.7-0.4-1.4-0.6-2.1-0.8c-0.6-0.1-1.1-0.3-1.7-0.5c-0.4-0.1-0.7-0.5-0.7-0.9
		c0-0.4,0.2-0.7,0.5-0.9c0.4-0.2,0.9-0.3,1.3-0.3c0.5,0,1,0.1,1.5,0.4c0.3,0.3,0.6,0.7,0.6,1.1h1.2
		C61.4,403.7,60.3,402.9,58.3,402.9L58.3,402.9z M66.7,402.9c-1.1,0-2.1,0.4-2.8,1.3c-1.4,1.8-1.4,4.3,0,6.1
		c0.7,0.8,1.7,1.2,2.8,1.1c0.9,0,1.9-0.3,2.6-0.9c0.6-0.5,0.9-1.2,1.1-1.9h-1.3c-0.2,0.5-0.4,0.9-0.8,1.3c-0.5,0.4-1,0.5-1.6,0.5
		c-0.7,0-1.4-0.2-1.8-0.8c-0.5-0.6-0.7-1.4-0.7-2.1h6.4c0-1.2-0.3-2.3-0.9-3.3C69,403.3,67.9,402.8,66.7,402.9L66.7,402.9z
		 M66.8,404c1.5,0,2.4,0.9,2.6,2.6h-5.1c0-0.7,0.3-1.4,0.8-1.9C65.5,404.2,66.1,403.9,66.8,404L66.8,404z M75.7,402.9
		c-0.5,0-1.1,0.2-1.5,0.5c-0.4,0.3-0.7,0.7-0.9,1.1v-1.4h-1.2v8.1h1.2V407c0-0.7,0.2-1.4,0.6-1.9c0.4-0.5,1-0.8,1.6-0.8
		c0.4,0,0.8,0.1,1.2,0.2v-1.3C76.5,403,76.1,402.9,75.7,402.9z"/>
	<path id="User-4" class="st5" d="M44.4,515.8v6.9c-0.1,1.2,0.3,2.4,1.1,3.4c2,1.6,4.8,1.6,6.7,0c0.8-0.9,1.2-2.1,1.1-3.4v-6.9H52
		v6.9c0.1,0.9-0.2,1.8-0.7,2.5c-0.7,0.6-1.5,1-2.5,0.9c-0.9,0.1-1.8-0.2-2.5-0.9c-0.5-0.7-0.8-1.6-0.7-2.5v-6.9H44.4L44.4,515.8z
		 M58.3,518.6c-0.8,0-1.6,0.2-2.2,0.6c-0.6,0.3-0.9,1-0.9,1.6c0,0.7,0.3,1.3,0.9,1.6c0.6,0.3,1.3,0.6,2,0.7c0.6,0.1,1.2,0.3,1.7,0.5
		c0.4,0.2,0.8,0.6,0.8,1.1c0,0.9-0.7,1.4-2.2,1.4c-0.5,0-1.1-0.1-1.6-0.4c-0.4-0.4-0.6-0.9-0.7-1.4H55c0.2,1.9,1.4,2.8,3.5,2.8
		c2.3,0,3.4-0.9,3.4-2.5c0-0.7-0.4-1.3-1-1.7c-0.7-0.4-1.4-0.6-2.1-0.8c-0.6-0.1-1.1-0.3-1.7-0.5c-0.4-0.1-0.7-0.5-0.7-0.9
		c0-0.4,0.2-0.7,0.5-0.9c0.4-0.2,0.9-0.3,1.3-0.3c0.5,0,1,0.1,1.5,0.4c0.3,0.3,0.6,0.7,0.6,1.1h1.2
		C61.4,519.5,60.3,518.6,58.3,518.6L58.3,518.6z M66.7,518.6c-1.1,0-2.1,0.4-2.8,1.3c-1.4,1.8-1.4,4.3,0,6.1
		c0.7,0.8,1.7,1.2,2.8,1.1c0.9,0,1.9-0.3,2.6-0.9c0.6-0.5,0.9-1.2,1.1-1.9h-1.3c-0.2,0.5-0.4,0.9-0.8,1.3c-0.5,0.3-1,0.5-1.6,0.5
		c-0.7,0-1.4-0.2-1.8-0.8c-0.5-0.6-0.7-1.4-0.7-2.1h6.4c0-1.2-0.3-2.3-0.9-3.3C69,519.1,67.9,518.6,66.7,518.6L66.7,518.6z
		 M66.8,519.7c1.5,0,2.4,0.9,2.6,2.6h-5.1c0-0.7,0.3-1.4,0.8-1.9C65.5,519.9,66.1,519.7,66.8,519.7L66.8,519.7z M75.7,518.6
		c-0.5,0-1.1,0.2-1.5,0.5c-0.4,0.3-0.7,0.7-0.9,1.1v-1.4h-1.2v8.1h1.2v-4.3c0-0.7,0.2-1.4,0.6-1.9c0.4-0.5,1-0.8,1.6-0.8
		c0.4,0,0.8,0.1,1.2,0.2v-1.3C76.5,518.7,76.1,518.6,75.7,518.6z"/>
	<path id="_....." class="st16" d="M61.1,427.5c0-0.5-0.2-1-0.6-1.4c-0.4-0.4-0.9-0.6-1.4-0.6c-0.5,0-1,0.2-1.4,0.6
		c-0.4,0.3-0.6,0.8-0.6,1.4c0,0.5,0.2,1,0.6,1.4c0.4,0.4,0.8,0.6,1.4,0.6c0.5,0,1-0.2,1.4-0.6C60.9,428.4,61.1,428,61.1,427.5z
		 M61.1,435.8c0-0.5-0.2-1-0.6-1.4c-0.4-0.4-0.9-0.6-1.4-0.6c-0.5,0-1,0.2-1.4,0.6c-0.4,0.3-0.6,0.8-0.6,1.4c0,0.5,0.2,1,0.6,1.4
		c0.4,0.4,0.8,0.6,1.4,0.6c0.5,0,1-0.2,1.4-0.6C60.9,436.8,61.1,436.3,61.1,435.8z M61.1,444.1c0-0.5-0.2-1-0.6-1.4
		c-0.4-0.4-0.9-0.6-1.4-0.6c-0.5,0-1,0.2-1.4,0.6c-0.4,0.3-0.6,0.8-0.6,1.4c0,0.5,0.2,1,0.6,1.4c0.4,0.4,0.8,0.6,1.4,0.6
		c0.5,0,1-0.2,1.4-0.6C60.9,445.1,61.1,444.6,61.1,444.1z M61.1,452.4c0-0.5-0.2-1-0.6-1.4c-0.4-0.4-0.9-0.6-1.4-0.6
		c-0.5,0-1,0.2-1.4,0.6c-0.4,0.3-0.6,0.8-0.6,1.4c0,0.5,0.2,1,0.6,1.4c0.4,0.4,0.8,0.6,1.4,0.6c0.5,0,1-0.2,1.4-0.6
		C60.9,453.4,61.1,452.9,61.1,452.4L61.1,452.4z M61.1,460.7c0-0.5-0.2-1-0.6-1.4c-0.4-0.4-0.9-0.6-1.4-0.6c-0.5,0-1,0.2-1.4,0.6
		c-0.4,0.3-0.6,0.8-0.6,1.4c0,0.5,0.2,1,0.6,1.4c0.4,0.4,0.8,0.6,1.4,0.6C60.2,462.6,61.1,461.8,61.1,460.7
		C61.1,460.7,61.1,460.7,61.1,460.7L61.1,460.7z"/>
	<path id="_........." class="st17" d="M792.7,39.9c0.5,0,1-0.2,1.3-0.6c0.4-0.4,0.6-0.9,0.6-1.4c0-0.5-0.2-1-0.6-1.4
		c-0.3-0.4-0.8-0.6-1.3-0.6c-0.5,0-1,0.2-1.4,0.6c-0.4,0.4-0.6,0.8-0.6,1.4c0,0.5,0.2,1,0.6,1.4C791.7,39.7,792.2,39.9,792.7,39.9z
		 M784.4,39.9c0.5,0,1-0.2,1.3-0.6c0.4-0.4,0.6-0.9,0.6-1.4c0-0.5-0.2-1-0.6-1.4c-0.3-0.4-0.8-0.6-1.3-0.6c-0.5,0-1,0.2-1.3,0.6
		c-0.4,0.4-0.6,0.8-0.6,1.4c0,0.5,0.2,1,0.6,1.4C783.4,39.7,783.9,39.9,784.4,39.9L784.4,39.9z M776.1,39.9c0.5,0,1-0.2,1.4-0.6
		c0.4-0.4,0.6-0.9,0.6-1.4c0-0.5-0.2-1-0.6-1.4c-0.3-0.4-0.8-0.6-1.4-0.6c-0.5,0-1,0.2-1.3,0.6c-0.4,0.4-0.6,0.8-0.6,1.4
		c0,0.5,0.2,1,0.6,1.4C775.1,39.7,775.6,39.9,776.1,39.9L776.1,39.9z M767.8,39.9c0.5,0,1-0.2,1.3-0.6c0.4-0.4,0.6-0.9,0.6-1.4
		c0-0.5-0.2-1-0.6-1.4c-0.3-0.4-0.8-0.6-1.3-0.6c-0.5,0-1,0.2-1.3,0.6c-0.4,0.4-0.6,0.8-0.6,1.4c0,0.5,0.2,1,0.6,1.4
		C766.8,39.7,767.3,39.9,767.8,39.9L767.8,39.9z M759.5,39.9c0.5,0,1-0.2,1.4-0.6c0.4-0.4,0.6-0.9,0.6-1.4c0-0.5-0.2-1-0.6-1.4
		c-0.3-0.4-0.8-0.6-1.4-0.6c-0.5,0-1,0.2-1.3,0.6c-0.4,0.4-0.6,0.8-0.6,1.4c0,0.5,0.2,1,0.6,1.4C758.5,39.7,759,39.9,759.5,39.9
		L759.5,39.9z M751.2,39.9c0.5,0,1-0.2,1.3-0.6c0.4-0.4,0.6-0.9,0.6-1.4c0-0.5-0.2-1-0.6-1.4c-0.3-0.4-0.8-0.6-1.3-0.6
		c-0.5,0-1,0.2-1.4,0.6c-0.4,0.4-0.6,0.8-0.6,1.4c0,0.5,0.2,1,0.6,1.4C750.2,39.7,750.7,39.9,751.2,39.9L751.2,39.9z M742.9,39.9
		c0.5,0,1-0.2,1.3-0.6c0.4-0.4,0.6-0.9,0.6-1.4c0-0.5-0.2-1-0.6-1.4c-0.3-0.4-0.8-0.6-1.3-0.6c-0.5,0-1,0.2-1.3,0.6
		c-0.4,0.4-0.6,0.8-0.6,1.4c0,0.5,0.2,1,0.6,1.4C741.9,39.7,742.4,39.9,742.9,39.9L742.9,39.9z M734.5,39.9c0.5,0,1-0.2,1.4-0.6
		c0.4-0.4,0.6-0.9,0.6-1.4c0-0.5-0.2-1-0.6-1.4c-0.3-0.4-0.8-0.6-1.4-0.6c-0.5,0-1,0.2-1.3,0.6c-0.4,0.4-0.6,0.8-0.6,1.4
		c0,0.5,0.2,1,0.6,1.4C733.6,39.7,734,39.9,734.5,39.9L734.5,39.9z M726.2,39.9c0.5,0,1-0.2,1.3-0.6c0.4-0.4,0.6-0.9,0.6-1.4
		c0-0.5-0.2-1-0.6-1.4c-0.3-0.4-0.8-0.6-1.3-0.6c-1.1,0-1.9,0.9-1.9,2c0,0.5,0.2,1,0.6,1.4C725.3,39.7,725.7,39.9,726.2,39.9
		L726.2,39.9z"/>
	<path id="Rect_4_Copy_2" class="st18" d="M43,35.2h600v6H43V35.2L43,35.2z"/>
	<path id="Rect_4_Copy_7" class="st18" d="M852,35.2h180v6H852V35.2L852,35.2z"/>

		<linearGradient id="Rect_4_1_" gradientUnits="userSpaceOnUse" x1="425" y1="-2122" x2="425" y2="-2092" gradientTransform="matrix(1 0 0 -1 -305 -2068.7649)">
		<stop  offset="0" style="stop-color:#74FBE8"/>
		<stop  offset="1" style="stop-color:#81FAA3"/>
	</linearGradient>
	<path id="Rect_4" class="st19" d="M88,23.2h64c2.2,0,4,1.8,4,4v22c0,2.2-1.8,4-4,4H88c-2.2,0-4-1.8-4-4v-22
		C84,25,85.8,23.2,88,23.2z"/>

		<linearGradient id="Rect_4_Copy_5_1_" gradientUnits="userSpaceOnUse" x1="537" y1="-2122" x2="537" y2="-2092" gradientTransform="matrix(1 0 0 -1 -305 -2068.7649)">
		<stop  offset="0" style="stop-color:#74FBE8"/>
		<stop  offset="1" style="stop-color:#81FAA3"/>
	</linearGradient>
	<path id="Rect_4_Copy_5" class="st20" d="M200,23.2h64c2.2,0,4,1.8,4,4v22c0,2.2-1.8,4-4,4h-64c-2.2,0-4-1.8-4-4v-22
		C196,25,197.8,23.2,200,23.2z"/>

		<linearGradient id="Rect_4_Copy_11_1_" gradientUnits="userSpaceOnUse" x1="650" y1="-2122" x2="650" y2="-2092" gradientTransform="matrix(1 0 0 -1 -305 -2068.7649)">
		<stop  offset="0" style="stop-color:#74FBE8"/>
		<stop  offset="1" style="stop-color:#81FAA3"/>
	</linearGradient>
	<path id="Rect_4_Copy_11" class="st21" d="M313,23.2h64c2.2,0,4,1.8,4,4v22c0,2.2-1.8,4-4,4h-64c-2.2,0-4-1.8-4-4v-22
		C309,25,310.8,23.2,313,23.2z"/>

		<linearGradient id="Rect_4_Copy_21_1_" gradientUnits="userSpaceOnUse" x1="762" y1="-2122" x2="762" y2="-2092" gradientTransform="matrix(1 0 0 -1 -305 -2068.7649)">
		<stop  offset="0" style="stop-color:#74FBE8"/>
		<stop  offset="1" style="stop-color:#81FAA3"/>
	</linearGradient>
	<path id="Rect_4_Copy_21" class="st22" d="M425,23.2h64c2.2,0,4,1.8,4,4v22c0,2.2-1.8,4-4,4h-64c-2.2,0-4-1.8-4-4v-22
		C421,25,422.8,23.2,425,23.2z"/>

		<linearGradient id="Rect_4_Copy_22_1_" gradientUnits="userSpaceOnUse" x1="875" y1="-2122" x2="875" y2="-2092" gradientTransform="matrix(1 0 0 -1 -305 -2068.7649)">
		<stop  offset="0" style="stop-color:#74FBE8"/>
		<stop  offset="1" style="stop-color:#81FAA3"/>
	</linearGradient>
	<path id="Rect_4_Copy_22" class="st23" d="M538,23.2h64c2.2,0,4,1.8,4,4v22c0,2.2-1.8,4-4,4h-64c-2.2,0-4-1.8-4-4v-22
		C534,25,535.8,23.2,538,23.2z"/>

		<linearGradient id="Rect_4_Copy_27_1_" gradientUnits="userSpaceOnUse" x1="987" y1="-2122" x2="987" y2="-2092" gradientTransform="matrix(1 0 0 -1 -305 -2068.7649)">
		<stop  offset="0" style="stop-color:#74FBE8"/>
		<stop  offset="1" style="stop-color:#81FAA3"/>
	</linearGradient>
	<path id="Rect_4_Copy_27" class="st24" d="M650,23.2h64c2.2,0,4,1.8,4,4v22c0,2.2-1.8,4-4,4h-64c-2.2,0-4-1.8-4-4v-22
		C646,25,647.8,23.2,650,23.2z"/>

		<linearGradient id="Rect_4_Copy_28_1_" gradientUnits="userSpaceOnUse" x1="1140" y1="-2122" x2="1140" y2="-2092" gradientTransform="matrix(1 0 0 -1 -305 -2068.7649)">
		<stop  offset="0" style="stop-color:#74FBE8"/>
		<stop  offset="1" style="stop-color:#81FAA3"/>
	</linearGradient>
	<path id="Rect_4_Copy_28" class="st25" d="M803,23.2h64c2.2,0,4,1.8,4,4v22c0,2.2-1.8,4-4,4h-64c-2.2,0-4-1.8-4-4v-22
		C799,25,800.8,23.2,803,23.2z"/>

		<linearGradient id="Rect_4_Copy_29_1_" gradientUnits="userSpaceOnUse" x1="1252" y1="-2122" x2="1252" y2="-2092" gradientTransform="matrix(1 0 0 -1 -305 -2068.7649)">
		<stop  offset="0" style="stop-color:#74FBE8"/>
		<stop  offset="1" style="stop-color:#81FAA3"/>
	</linearGradient>
	<path id="Rect_4_Copy_29" class="st26" d="M915,23.2h64c2.2,0,4,1.8,4,4v22c0,2.2-1.8,4-4,4h-64c-2.2,0-4-1.8-4-4v-22
		C911,25,912.8,23.2,915,23.2z"/>
	<path id="Rect_1_Copy_4" class="st12" d="M962.5,221.8h6v166h-6V221.8L962.5,221.8z"/>
	<path id="Rect_1_Copy_5" class="st12" d="M962.5,471.8h6v106h-6V471.8L962.5,471.8z"/>
	<path id="Rect_1_Copy_6" class="st12" d="M345.5,109.1h6v40h-6V109.1L345.5,109.1z"/>
	<path id="Rect_1_Copy_8" class="st12" d="M733.5,109.1h6v40h-6V109.1L733.5,109.1z"/>
	<path id="Rect_1_Copy_7" class="st12" d="M685.5,148.7h6v52h-6V148.7L685.5,148.7z"/>
	<path id="Rect_1_Copy_10" class="st12" d="M963.5,148.7h6v52h-6V148.7L963.5,148.7z"/>
	<path id="Rect_1_Copy_6-2" class="st12" d="M345.5,143.7h346v6h-346V143.7L345.5,143.7z"/>
	<path id="Rect_1_Copy_9" class="st12" d="M733.5,143.7h236v6h-236V143.7L733.5,143.7z"/>

		<linearGradient id="Rect_4_Copy_19_1_" gradientUnits="userSpaceOnUse" x1="1270.98" y1="-2355" x2="1270.98" y2="-2307" gradientTransform="matrix(1 0 0 -1 -305 -2068.7649)">
		<stop  offset="0" style="stop-color:#74FBE8"/>
		<stop  offset="1" style="stop-color:#81FAA3"/>
	</linearGradient>
	<path id="Rect_4_Copy_19" class="st27" d="M955,238.2h22c2.2,0,4,1.8,4,4v40c0,2.2-1.8,4-4,4h-22c-2.2,0-4-1.8-4-4v-40
		C951,240,952.8,238.2,955,238.2z"/>

		<linearGradient id="Rect_4_Copy_31_1_" gradientUnits="userSpaceOnUse" x1="1270.98" y1="-2473" x2="1270.98" y2="-2425" gradientTransform="matrix(1 0 0 -1 -305 -2068.7649)">
		<stop  offset="0" style="stop-color:#74FBE8"/>
		<stop  offset="1" style="stop-color:#81FAA3"/>
	</linearGradient>
	<path id="Rect_4_Copy_31" class="st28" d="M955,356.2h22c2.2,0,4,1.8,4,4v40c0,2.2-1.8,4-4,4h-22c-2.2,0-4-1.8-4-4v-40
		C951,358,952.8,356.2,955,356.2z"/>

		<linearGradient id="Rect_4_Copy_30_1_" gradientUnits="userSpaceOnUse" x1="1270.98" y1="-2412" x2="1270.98" y2="-2364" gradientTransform="matrix(1 0 0 -1 -305 -2068.7649)">
		<stop  offset="0" style="stop-color:#74FBE8"/>
		<stop  offset="1" style="stop-color:#81FAA3"/>
	</linearGradient>
	<path id="Rect_4_Copy_30" class="st29" d="M955,295.2h22c2.2,0,4,1.8,4,4v40c0,2.2-1.8,4-4,4h-22c-2.2,0-4-1.8-4-4v-40
		C951,297,952.8,295.2,955,295.2z"/>

		<linearGradient id="Rect_4_Copy_34_1_" gradientUnits="userSpaceOnUse" x1="1270.98" y1="-2565" x2="1270.98" y2="-2517" gradientTransform="matrix(1 0 0 -1 -305 -2068.7649)">
		<stop  offset="0" style="stop-color:#74FBE8"/>
		<stop  offset="1" style="stop-color:#81FAA3"/>
	</linearGradient>
	<path id="Rect_4_Copy_34" class="st30" d="M955,448.2h22c2.2,0,4,1.8,4,4v40c0,2.2-1.8,4-4,4h-22c-2.2,0-4-1.8-4-4v-40
		C951,450,952.8,448.2,955,448.2z"/>

		<linearGradient id="Rect_4_Copy_35_1_" gradientUnits="userSpaceOnUse" x1="1270.98" y1="-2622" x2="1270.98" y2="-2574" gradientTransform="matrix(1 0 0 -1 -305 -2068.7649)">
		<stop  offset="0" style="stop-color:#74FBE8"/>
		<stop  offset="1" style="stop-color:#81FAA3"/>
	</linearGradient>
	<path id="Rect_4_Copy_35" class="st31" d="M955,505.2h22c2.2,0,4,1.8,4,4v40c0,2.2-1.8,4-4,4h-22c-2.2,0-4-1.8-4-4v-40
		C951,507,952.8,505.2,955,505.2z"/>
	<path id="_.....-2" class="st16" d="M333,423.5c0-0.5-0.2-1-0.6-1.4c-0.4-0.4-0.9-0.6-1.4-0.6c-0.5,0-1,0.2-1.4,0.6
		c-0.4,0.3-0.6,0.8-0.6,1.4c0,0.5,0.2,1,0.6,1.4c0.4,0.4,0.8,0.6,1.4,0.6c0.5,0,1-0.2,1.4-0.6C332.8,424.4,333,424,333,423.5z
		 M333,431.8c0-0.5-0.2-1-0.6-1.4c-0.4-0.4-0.9-0.6-1.4-0.6c-0.5,0-1,0.2-1.4,0.6c-0.4,0.3-0.6,0.8-0.6,1.4c0,0.5,0.2,1,0.6,1.4
		c0.4,0.4,0.8,0.6,1.4,0.6c0.5,0,1-0.2,1.4-0.6C332.8,432.8,333,432.3,333,431.8z M333,440.1c0-0.5-0.2-1-0.6-1.4
		c-0.4-0.4-0.9-0.6-1.4-0.6c-0.5,0-1,0.2-1.4,0.6c-0.4,0.3-0.6,0.8-0.6,1.4c0,0.5,0.2,1,0.6,1.4c0.4,0.4,0.8,0.6,1.4,0.6
		c0.5,0,1-0.2,1.4-0.6C332.8,441.1,333,440.6,333,440.1z M333,448.4c0-0.5-0.2-1-0.6-1.4c-0.4-0.4-0.9-0.6-1.4-0.6
		c-0.5,0-1,0.2-1.4,0.6c-0.4,0.3-0.6,0.8-0.6,1.4c0,0.5,0.2,1,0.6,1.4c0.4,0.4,0.8,0.6,1.4,0.6c0.5,0,1-0.2,1.4-0.6
		C332.8,449.4,333,448.9,333,448.4L333,448.4z M333,456.7c0-0.5-0.2-1-0.6-1.4c-0.4-0.4-0.9-0.6-1.4-0.6c-0.5,0-1,0.2-1.4,0.6
		c-0.4,0.3-0.6,0.8-0.6,1.4c0,0.5,0.2,1,0.6,1.4c0.4,0.4,0.8,0.6,1.4,0.6C332.1,458.6,333,457.8,333,456.7
		C333,456.7,333,456.7,333,456.7L333,456.7z"/>
	<path id="_.....-3" class="st16" d="M967.9,411.1c0-0.5-0.2-1-0.6-1.4c-0.4-0.4-0.9-0.6-1.4-0.6c-0.5,0-1,0.2-1.3,0.6
		c-0.4,0.3-0.6,0.8-0.6,1.4c0,0.5,0.2,1,0.6,1.4c0.4,0.4,0.8,0.6,1.3,0.6c0.5,0,1-0.2,1.4-0.6C967.7,412.1,967.9,411.6,967.9,411.1z
		 M967.9,419.4c0-0.5-0.2-1-0.6-1.4c-0.4-0.4-0.9-0.6-1.4-0.6c-0.5,0-1,0.2-1.3,0.6c-0.4,0.3-0.6,0.8-0.6,1.4c0,0.5,0.2,1,0.6,1.4
		c0.4,0.4,0.8,0.6,1.3,0.6c0.5,0,1-0.2,1.4-0.6C967.7,420.4,967.9,419.9,967.9,419.4L967.9,419.4z M967.9,427.7c0-0.5-0.2-1-0.6-1.4
		c-0.4-0.4-0.9-0.6-1.4-0.6c-0.5,0-1,0.2-1.3,0.6c-0.4,0.3-0.6,0.8-0.6,1.4c0,0.5,0.2,1,0.6,1.4c0.4,0.4,0.8,0.6,1.3,0.6
		c0.5,0,1-0.2,1.4-0.6C967.7,428.7,967.9,428.2,967.9,427.7L967.9,427.7z M967.9,436c0-0.5-0.2-1-0.6-1.4c-0.4-0.4-0.9-0.6-1.4-0.6
		c-0.5,0-1,0.2-1.3,0.6c-0.4,0.3-0.6,0.8-0.6,1.4c0,0.5,0.2,1,0.6,1.4c0.4,0.4,0.8,0.6,1.3,0.6c0.5,0,1-0.2,1.4-0.6
		C967.7,437,967.9,436.5,967.9,436L967.9,436z M967.9,444.3c0-0.5-0.2-1-0.6-1.4c-0.4-0.4-0.9-0.6-1.4-0.6c-0.5,0-1,0.2-1.3,0.6
		c-0.4,0.3-0.6,0.8-0.6,1.4c0,0.5,0.2,1,0.6,1.4c0.4,0.4,0.8,0.6,1.3,0.6c0.5,0,1-0.2,1.4-0.6C967.7,445.3,967.9,444.8,967.9,444.3
		L967.9,444.3z"/>

		<linearGradient id="Shape_3_Copy_1_" gradientUnits="userSpaceOnUse" x1="1051.5898" y1="-2540.25" x2="1051.5898" y2="-2503.72" gradientTransform="matrix(1 0 0 -1 -305 -2068.7649)">
		<stop  offset="0" style="stop-color:#74FBE8"/>
		<stop  offset="1" style="stop-color:#81FAA3"/>
	</linearGradient>
	<path id="Shape_3_Copy" class="st32" d="M763.2,444.1H730v2.8h33.2V444.1z M756.2,456H730v3.5h26.3V456z M763.2,450.4H730v2.8
		h33.2V450.4z M770.2,465.2v-27c0-1.8-1.8-3.2-3.8-3.2h-39.6c-1.9,0-3.8,1.5-3.8,3.2v27h-3.1v3.3c0.1,1.8,1.6,3.1,3.3,3h46.7
		c1.8,0.1,3.3-1.3,3.3-3v-3.3H770.2z M746.6,436.5c0.7,0,1.3,0.4,1.6,0.9c0.3,0.6,0.1,1.2-0.4,1.7c-0.5,0.4-1.2,0.6-1.8,0.3
		c-0.6-0.2-1-0.8-1-1.4c0-0.4,0.2-0.8,0.5-1.1C745.7,436.6,746.1,436.5,746.6,436.5L746.6,436.5L746.6,436.5z M750.1,468.7h-6.9
		v-3.5h6.9V468.7z M766.3,462.4h-39.4v-21.1h39.4V462.4z"/>

		<linearGradient id="Shape_3_Copy_2_1_" gradientUnits="userSpaceOnUse" x1="1103.9299" y1="-2502.8101" x2="1103.9299" y2="-2466.25" gradientTransform="matrix(1 0 0 -1 -305 -2068.7649)">
		<stop  offset="0" style="stop-color:#74FBE8"/>
		<stop  offset="1" style="stop-color:#81FAA3"/>
	</linearGradient>
	<path id="Shape_3_Copy_2" class="st33" d="M815.6,406.6h-33.2v2.8h33.2V406.6z M808.6,418.6h-26.3v3.5h26.3V418.6z M815.6,413
		h-33.2v2.8h33.2V413z M822.5,427.7v-27c0-1.8-1.8-3.2-3.8-3.2h-39.6c-1.9,0-3.8,1.5-3.8,3.2v27h-3.1v3.3c0.1,1.8,1.6,3.1,3.3,3.1
		h46.7c1.8,0.1,3.2-1.3,3.3-3.1v-3.3H822.5z M798.9,399c0.7,0,1.3,0.3,1.6,0.9c0.3,0.6,0.1,1.3-0.4,1.7c-0.5,0.4-1.2,0.6-1.8,0.3
		c-0.6-0.2-1-0.8-1-1.4c0-0.4,0.2-0.8,0.5-1.1C798.1,399.2,798.5,399,798.9,399L798.9,399L798.9,399z M802.4,431.2h-7v-3.5h7V431.2z
		 M818.6,424.9h-39.4v-21.1h39.4V424.9z"/>

		<linearGradient id="Shape_3_Copy_3_1_" gradientUnits="userSpaceOnUse" x1="1156.28" y1="-2540.25" x2="1156.28" y2="-2503.72" gradientTransform="matrix(1 0 0 -1 -305 -2068.7649)">
		<stop  offset="0" style="stop-color:#74FBE8"/>
		<stop  offset="1" style="stop-color:#81FAA3"/>
	</linearGradient>
	<path id="Shape_3_Copy_3" class="st34" d="M867.9,444.1h-33.2v2.8h33.2V444.1z M860.9,456h-26.3v3.5h26.3V456z M867.9,450.4
		h-33.2v2.8h33.2V450.4z M874.8,465.2v-27c0-1.8-1.8-3.2-3.8-3.2h-39.6c-1.9,0-3.8,1.5-3.8,3.2v27h-3.1v3.3c0.1,1.8,1.6,3.1,3.3,3
		h46.7c1.8,0.1,3.3-1.3,3.3-3v-3.3H874.8z M851.3,436.5c0.7,0,1.3,0.4,1.6,0.9c0.3,0.6,0.1,1.2-0.4,1.7c-0.5,0.4-1.2,0.6-1.8,0.3
		c-0.6-0.2-1-0.8-1-1.4c0-0.4,0.2-0.8,0.5-1.1C850.4,436.6,850.8,436.5,851.3,436.5L851.3,436.5L851.3,436.5z M854.8,468.7h-7v-3.5
		h7V468.7z M871,462.4h-39.4v-21.1H871V462.4z"/>

		<linearGradient id="Oval_9_Copy_3_1_" gradientUnits="userSpaceOnUse" x1="1153.95" y1="-2384.0601" x2="1153.95" y2="-2348.0601" gradientTransform="matrix(1 0 0 -1 -305 -2068.7649)">
		<stop  offset="0" style="stop-color:#74FBE8"/>
		<stop  offset="1" style="stop-color:#81FAA3"/>
	</linearGradient>
	<path id="Oval_9_Copy_3" class="st35" d="M824.9,279.3h48v29.4h-48V279.3L824.9,279.3z M848.9,298.9c13.2,0,24,3.7,24,8.2
		s-10.8,8.2-24,8.2s-24-3.7-24-8.2S835.7,298.9,848.9,298.9z"/>

		<linearGradient id="Oval_9_Copy_3-2_1_" gradientUnits="userSpaceOnUse" x1="1154.045" y1="-2356.8401" x2="1154.045" y2="-2341.0601" gradientTransform="matrix(1 0 0 -1 -305 -2068.7649)">
		<stop  offset="0" style="stop-color:#74FBE8"/>
		<stop  offset="1" style="stop-color:#81FAA3"/>
	</linearGradient>
	<path id="Oval_9_Copy_3-2" class="st36" d="M849.1,272.3c13.2,0,24,3.5,24,7.9s-10.7,7.9-24,7.9s-24-3.5-24-7.9
		S835.8,272.3,849.1,272.3z"/>

		<linearGradient id="Oval_9_Copy_6_1_" gradientUnits="userSpaceOnUse" x1="1098.92" y1="-2356" x2="1098.92" y2="-2320" gradientTransform="matrix(1 0 0 -1 -305 -2068.7649)">
		<stop  offset="0" style="stop-color:#74FBE8"/>
		<stop  offset="1" style="stop-color:#81FAA3"/>
	</linearGradient>
	<path id="Oval_9_Copy_6" class="st37" d="M769.9,251.2h48v29.5h-48V251.2L769.9,251.2z M793.9,270.9c13.2,0,24,3.7,24,8.2
		s-10.8,8.2-24,8.2s-24-3.7-24-8.2S780.7,270.9,793.9,270.9z"/>

		<linearGradient id="Oval_9_Copy_6-2_1_" gradientUnits="userSpaceOnUse" x1="1099.015" y1="-2328.78" x2="1099.015" y2="-2313" gradientTransform="matrix(1 0 0 -1 -305 -2068.7649)">
		<stop  offset="0" style="stop-color:#74FBE8"/>
		<stop  offset="1" style="stop-color:#81FAA3"/>
	</linearGradient>
	<path id="Oval_9_Copy_6-2" class="st38" d="M794,244.2c13.2,0,24,3.5,24,7.9s-10.7,7.9-24,7.9s-24-3.5-24-7.9
		S780.8,244.2,794,244.2z"/>

		<linearGradient id="Oval_9_Copy_7_1_" gradientUnits="userSpaceOnUse" x1="1043.885" y1="-2384.0601" x2="1043.885" y2="-2348.0601" gradientTransform="matrix(1 0 0 -1 -305 -2068.7649)">
		<stop  offset="0" style="stop-color:#74FBE8"/>
		<stop  offset="1" style="stop-color:#81FAA3"/>
	</linearGradient>
	<path id="Oval_9_Copy_7" class="st39" d="M714.9,279.3h48v29.4h-48V279.3L714.9,279.3z M738.9,298.9c13.2,0,24,3.7,24,8.2
		s-10.7,8.2-24,8.2s-24-3.7-24-8.2S725.6,298.9,738.9,298.9z"/>

		<linearGradient id="Oval_9_Copy_7-2_1_" gradientUnits="userSpaceOnUse" x1="1043.975" y1="-2356.8401" x2="1043.975" y2="-2341.0601" gradientTransform="matrix(1 0 0 -1 -305 -2068.7649)">
		<stop  offset="0" style="stop-color:#74FBE8"/>
		<stop  offset="1" style="stop-color:#81FAA3"/>
	</linearGradient>
	<path id="Oval_9_Copy_7-2" class="st40" d="M739,272.3c13.2,0,24,3.5,24,7.9s-10.7,7.9-24,7.9s-24-3.5-24-7.9
		S725.7,272.3,739,272.3z"/>
	<linearGradient id="Shape_1_Copy_4_3_" gradientUnits="userSpaceOnUse" x1="44.1154" y1="376.8246" x2="76.1154" y2="376.8246">
		<stop  offset="0" style="stop-color:#FFF21F"/>
		<stop  offset="0" style="stop-color:#F5F32D"/>
		<stop  offset="0" style="stop-color:#D3F55F"/>
		<stop  offset="0" style="stop-color:#B6F789"/>
		<stop  offset="0" style="stop-color:#9EF8AB"/>
		<stop  offset="0" style="stop-color:#8CF9C6"/>
		<stop  offset="0" style="stop-color:#7EFAD9"/>
		<stop  offset="0" style="stop-color:#77FBE4"/>
		<stop  offset="0" style="stop-color:#74FBE8"/>
		<stop  offset="1" style="stop-color:#81FAA3"/>
	</linearGradient>
	<path id="Shape_1_Copy_4_1_" class="st41" d="M63.8,393.3h-7.3c-6.9,0-12.4,0-12.4-3.2v-0.6c0-5.9,5.5-10.8,12.4-10.8h7.3
		c6.8,0,12.4,4.8,12.4,10.8v0.6C76.1,393.3,70.4,393.3,63.8,393.3L63.8,393.3z M56.4,380.5c-5.7,0-10.4,4.1-10.4,9v0.6
		c0,1.3,6,1.3,10.4,1.3h7.4c3.6,0,10.4,0,10.4-1.3v-0.6c0-5-4.7-9-10.4-9H56.4z M59.8,377.4c-5.4,0-9.8-3.8-9.8-8.6s4.4-8.6,9.8-8.6
		s9.8,3.8,9.8,8.6S65.2,377.4,59.8,377.4L59.8,377.4z M52,368.9c0,3.7,3.5,6.8,7.8,6.8s7.8-3,7.8-6.8s-3.5-6.8-7.8-6.8
		S52,365.1,52,368.9L52,368.9z"/>
</g>
</svg>
