<?xml version="1.0" encoding="utf-8"?>
<!-- Generator: Adobe Illustrator 25.0.0, SVG Export Plug-In . SVG Version: 6.00 Build 0)  -->
<svg version="1.1" id="icon_reducing" xmlns="http://www.w3.org/2000/svg" xmlns:xlink="http://www.w3.org/1999/xlink" x="0px"
	 y="0px" viewBox="0 0 100 100" style="enable-background:new 0 0 100 100;" xml:space="preserve">
<style type="text/css">
	
		.st0{fill-rule:evenodd;clip-rule:evenodd;fill:none;stroke:url(#椭圆_12_拷贝_5_1_);stroke-width:2;stroke-linecap:round;stroke-linejoin:round;}
	
		.st1{fill-rule:evenodd;clip-rule:evenodd;fill:none;stroke:url(#椭圆_12_拷贝_6_1_);stroke-width:2;stroke-linecap:round;stroke-linejoin:round;}
	
		.st2{fill-rule:evenodd;clip-rule:evenodd;fill:none;stroke:url(#椭圆_12_拷贝_7_1_);stroke-width:2;stroke-linecap:round;stroke-linejoin:round;}
	
		.st3{fill-rule:evenodd;clip-rule:evenodd;fill:none;stroke:url(#椭圆_12_拷贝_7-2_1_);stroke-width:2;stroke-linecap:round;stroke-linejoin:round;}
	.st4{fill-rule:evenodd;clip-rule:evenodd;fill:url(#形状_6_1_);}
	.st5{fill-rule:evenodd;clip-rule:evenodd;fill:url(#椭圆_12_拷贝_1_);}
	.st6{fill:url(#椭圆_12_拷贝_2_1_);}
	.st7{fill-rule:evenodd;clip-rule:evenodd;fill:url(#椭圆_12_拷贝_4_1_);}
	.st8{fill:url(#椭圆_12_拷贝_3_1_);}
	.st9{fill-rule:evenodd;clip-rule:evenodd;fill:url(#圆角矩形_21_1_);stroke:#0E1414;}
	.st10{fill-rule:evenodd;clip-rule:evenodd;fill:#0E1414;}
</style>
<g>
	
		<linearGradient id="椭圆_12_拷贝_5_1_" gradientUnits="userSpaceOnUse" x1="754.496" y1="-1684.38" x2="754.496" y2="-1652.75" gradientTransform="matrix(1 0 0 -1 -679.75 -1642)">
		<stop  offset="0" style="stop-color:#19FFF4"/>
		<stop  offset="1" style="stop-color:#AEFFAE"/>
	</linearGradient>
	<path id="椭圆_12_拷贝_5" class="st0" d="M60.2,10.8c14.9,4.2,26.1,16.4,29.1,31.6"/>
	
		<linearGradient id="椭圆_12_拷贝_6_1_" gradientUnits="userSpaceOnUse" x1="705.0345" y1="-1681.75" x2="705.0345" y2="-1652.72" gradientTransform="matrix(1 0 0 -1 -679.75 -1642)">
		<stop  offset="0" style="stop-color:#19FFF4"/>
		<stop  offset="1" style="stop-color:#AEFFAE"/>
	</linearGradient>
	<path id="椭圆_12_拷贝_6" class="st1" d="M9.5,39.8c4.2-14.9,16.4-26.1,31.6-29.1"/>
	
		<linearGradient id="椭圆_12_拷贝_7_1_" gradientUnits="userSpaceOnUse" x1="703.7159" y1="-1732.03" x2="703.7159" y2="-1700.41" gradientTransform="matrix(1 0 0 -1 -679.75 -1642)">
		<stop  offset="0" style="stop-color:#19FFF4"/>
		<stop  offset="1" style="stop-color:#AEFFAE"/>
	</linearGradient>
	<path id="椭圆_12_拷贝_7" class="st2" d="M38.5,90C23.6,85.8,12.3,73.6,9.4,58.4"/>
	
		<linearGradient id="椭圆_12_拷贝_7-2_1_" gradientUnits="userSpaceOnUse" x1="753.1775" y1="-1730.9399" x2="753.1775" y2="-1701.88" gradientTransform="matrix(1 0 0 -1 -679.75 -1642)">
		<stop  offset="0" style="stop-color:#19FFF4"/>
		<stop  offset="1" style="stop-color:#AEFFAE"/>
	</linearGradient>
	<path id="椭圆_12_拷贝_7-2" class="st3" d="M89.2,59.9C85.1,74.8,72.8,86,57.6,88.9"/>
	
		<linearGradient id="形状_6_1_" gradientUnits="userSpaceOnUse" x1="701.957" y1="-1692" x2="757.957" y2="-1692" gradientTransform="matrix(1 0 0 -1 -679.75 -1642)">
		<stop  offset="0" style="stop-color:#19FFF4"/>
		<stop  offset="1" style="stop-color:#AEFFAE"/>
	</linearGradient>
	<path id="形状_6" class="st4" d="M50.3,22L50.3,22c-15.5,0-28.1,12.5-28.1,28s12.5,28,28,28h0.1c15.5,0,28-12.5,28-28
		S65.8,22,50.3,22z M50.3,76L50.3,76C35.8,76,24.2,64.3,24.2,50c0-14.4,11.7-26,26-26h0.1c14.4,0,26,11.7,26,26.1
		C76.3,64.4,64.6,76,50.3,76z M44,41.4c0,3.2,2.2,5.5,6,6.9V35.3C45.8,35.6,44,38.4,44,41.4L44,41.4z M51.5,52.2v14
		c4.3-0.2,6.1-3.3,6.1-6.5C57.6,58.1,57.5,53.9,51.5,52.2L51.5,52.2z M50.2,25.8C36.9,25.8,26.1,36.6,26,50
		c0,13.3,10.8,24.2,24.1,24.2c13.3,0,24.2-10.8,24.2-24.1c0,0,0,0,0,0C74.4,36.7,63.6,25.8,50.2,25.8z M51.5,67.4v5H50v-5
		c-3,0.1-6-0.6-8.7-2.1c-0.3-1.1-0.9-4.1-1.4-7.2l1.1-0.4c1,3,3.4,7.9,9.1,8.4V51.7l-2.3-1.1c-3.3-1.6-6.4-3.7-6.4-8
		c0-4,2.8-7.8,8.7-8.4v-4.6h1.6l-0.1,4.6c2.4,0,4.7,0.3,7,1c0.3,1.8,0.6,3.7,1.2,6.9l-1.1,0.4c-1.2-3.7-2.3-6.4-7-7.1l-0.1,13.4
		c4.2,1.5,9.3,3.7,9.3,9.5C60.8,63.1,57.4,66.7,51.5,67.4L51.5,67.4z"/>
	
		<linearGradient id="椭圆_12_拷贝_1_" gradientUnits="userSpaceOnUse" x1="725.594" y1="-1652.4" x2="732.406" y2="-1652.4" gradientTransform="matrix(1 0 0 -1 -679.75 -1642)">
		<stop  offset="0" style="stop-color:#19FFF4"/>
		<stop  offset="1" style="stop-color:#AEFFAE"/>
	</linearGradient>
	<path id="椭圆_12_拷贝" class="st5" d="M49.2,7c1.9,0,3.4,1.5,3.4,3.4s-1.5,3.4-3.4,3.4c-1.9,0-3.4-1.5-3.4-3.4c0,0,0,0,0,0
		C45.9,8.5,47.4,7,49.2,7z"/>
	
		<linearGradient id="椭圆_12_拷贝_2_1_" gradientUnits="userSpaceOnUse" x1="85.47" y1="50" x2="92.25" y2="50" gradientTransform="matrix(1 0 0 -1 0 100)">
		<stop  offset="0" style="stop-color:#19FFF4"/>
		<stop  offset="1" style="stop-color:#AEFFAE"/>
	</linearGradient>
	<circle id="椭圆_12_拷贝_2" class="st6" cx="88.9" cy="50" r="3.4"/>
	
		<linearGradient id="椭圆_12_拷贝_4_1_" gradientUnits="userSpaceOnUse" x1="686" y1="-1692.01" x2="692.781" y2="-1692.01" gradientTransform="matrix(1 0 0 -1 -679.75 -1642)">
		<stop  offset="0" style="stop-color:#19FFF4"/>
		<stop  offset="1" style="stop-color:#AEFFAE"/>
	</linearGradient>
	<path id="椭圆_12_拷贝_4" class="st7" d="M9.7,46.6c1.9,0,3.4,1.5,3.4,3.4s-1.5,3.4-3.4,3.4c-1.9,0-3.4-1.5-3.4-3.4
		c0,0,0,0,0,0C6.3,48.1,7.8,46.6,9.7,46.6C9.6,46.6,9.6,46.6,9.7,46.6z"/>
	
		<linearGradient id="椭圆_12_拷贝_3_1_" gradientUnits="userSpaceOnUse" x1="45.844" y1="10.39" x2="52.656" y2="10.39" gradientTransform="matrix(1 0 0 -1 0 100)">
		<stop  offset="0" style="stop-color:#19FFF4"/>
		<stop  offset="1" style="stop-color:#AEFFAE"/>
	</linearGradient>
	<circle id="椭圆_12_拷贝_3" class="st8" cx="49.2" cy="89.6" r="3.4"/>
	
		<linearGradient id="圆角矩形_21_1_" gradientUnits="userSpaceOnUse" x1="736" y1="-1716" x2="773" y2="-1716" gradientTransform="matrix(1 0 0 -1 -679.75 -1642)">
		<stop  offset="0" style="stop-color:#19FFF4"/>
		<stop  offset="1" style="stop-color:#AEFFAE"/>
	</linearGradient>
	<path id="圆角矩形_21" class="st9" d="M66.2,64h17c5.5,0,10,4.5,10,10s-4.5,10-10,10h-17c-5.5,0-10-4.5-10-10S60.7,64,66.2,64z
		"/>
	<path id="Save" class="st10" d="M65.4,68.8c-0.8,0-1.6,0.2-2.3,0.6c-0.6,0.4-1,1.1-0.9,1.8c0,0.7,0.4,1.4,1,1.7
		c0.6,0.3,1.3,0.5,2,0.7c0.6,0.2,1.1,0.4,1.7,0.6c0.5,0.2,0.8,0.6,0.8,1.1c0,0.4-0.2,0.7-0.6,0.9c-0.5,0.2-1,0.4-1.5,0.3
		c-0.6,0-1.1-0.1-1.6-0.4c-0.4-0.4-0.7-0.9-0.7-1.4h-1.3c0,0.9,0.4,1.8,1.2,2.4c1.6,0.8,3.4,0.8,5,0c0.6-0.4,0.9-1.1,0.9-1.8
		c0-0.8-0.4-1.5-1.1-1.8c-0.7-0.4-1.5-0.6-2.2-0.8c-0.5-0.1-1-0.3-1.5-0.5c-0.4-0.1-0.6-0.5-0.6-0.9c0-0.4,0.2-0.8,0.6-0.9
		c0.4-0.2,0.9-0.3,1.3-0.2c0.5,0,1,0.1,1.5,0.4c0.4,0.3,0.6,0.7,0.7,1.2h1.3c0-0.8-0.4-1.6-1-2.1C67,68.9,66.2,68.7,65.4,68.8z
		 M73,71.1c-0.6,0-1.3,0.1-1.8,0.4c-0.5,0.3-0.9,0.9-1,1.5l1.3,0.1c0.1-0.3,0.3-0.6,0.5-0.8c0.3-0.2,0.6-0.2,1-0.2
		c0.6-0.1,1.3,0.3,1.4,1c0,0.1,0,0.2,0,0.3v0.3l-1.4,0c-0.8,0-1.5,0.2-2.1,0.6c-0.5,0.3-0.9,1-0.8,1.6c0,0.5,0.2,1,0.6,1.3
		c0.4,0.3,1,0.5,1.5,0.5c0.5,0,1-0.1,1.4-0.3c0.4-0.2,0.7-0.4,0.9-0.7v0.9h1.2v-4c0-0.6-0.2-1.2-0.6-1.7
		C74.5,71.3,73.8,71.1,73,71.1z M74.3,74.6V75c0,0.5-0.2,0.9-0.6,1.2c-0.4,0.3-0.9,0.5-1.4,0.5c-0.3,0-0.6-0.1-0.8-0.2
		c-0.2-0.1-0.3-0.3-0.3-0.6c0-0.8,0.6-1.2,1.7-1.2L74.3,74.6z M76.6,71.3l2.3,6.2h1.3l2.3-6.2h-1.4l-1.6,4.6L78,71.3H76.6L76.6,71.3
		z M85.9,71.1c-0.8,0-1.6,0.3-2.2,0.9c-1.1,1.4-1.1,3.4,0,4.7c0.6,0.6,1.4,0.9,2.2,0.8c0.7,0,1.5-0.2,2.1-0.7
		c0.4-0.4,0.7-0.9,0.9-1.4h-1.3c-0.1,0.3-0.3,0.6-0.6,0.8c-0.3,0.2-0.7,0.3-1.1,0.3c-0.4,0-0.9-0.2-1.2-0.5
		c-0.3-0.4-0.5-0.9-0.5-1.4h4.7c0-0.9-0.2-1.8-0.7-2.6C87.6,71.4,86.8,71.1,85.9,71.1z M85.9,72.2c0.9-0.1,1.6,0.6,1.7,1.4
		c0,0.1,0,0.1,0,0.2h-3.3c0-0.4,0.2-0.9,0.5-1.2C85.1,72.3,85.5,72.1,85.9,72.2z"/>
</g>
</svg>
