<?xml version="1.0" encoding="utf-8"?>
<!-- Generator: Adobe Illustrator 25.0.0, SVG Export Plug-In . SVG Version: 6.00 Build 0)  -->
<svg version="1.1" id="组_4" xmlns="http://www.w3.org/2000/svg" xmlns:xlink="http://www.w3.org/1999/xlink" x="0px" y="0px"
	 viewBox="0 0 100 100" style="enable-background:new 0 0 100 100;" xml:space="preserve">
<style type="text/css">
	.st0{fill-rule:evenodd;clip-rule:evenodd;fill:url(#圆角矩形_20_拷贝_3_1_);}
	.st1{fill-rule:evenodd;clip-rule:evenodd;fill:url(#圆角矩形_20_拷贝_7_1_);}
	.st2{fill-rule:evenodd;clip-rule:evenodd;fill:url(#圆角矩形_20_拷贝_4_1_);}
	.st3{fill-rule:evenodd;clip-rule:evenodd;fill:url(#圆角矩形_20_拷贝_5_1_);}
	.st4{fill-rule:evenodd;clip-rule:evenodd;fill:url(#圆角矩形_20_拷贝_6_1_);}
	.st5{fill-rule:evenodd;clip-rule:evenodd;fill:url(#圆角矩形_20_拷贝_6-2_1_);}
	.st6{fill-rule:evenodd;clip-rule:evenodd;fill:none;stroke:url(#多边形_1_拷贝_1_);stroke-width:2;}
	.st7{fill-rule:evenodd;clip-rule:evenodd;fill:#33B1FF;}
	.st8{fill-rule:evenodd;clip-rule:evenodd;fill:#96FA96;}
	.st9{fill-rule:evenodd;clip-rule:evenodd;fill:#33F8FF;}
</style>
<g>
	
		<linearGradient id="圆角矩形_20_拷贝_3_1_" gradientUnits="userSpaceOnUse" x1="1373.7968" y1="-1667.4852" x2="1373.7968" y2="-1649.2511" gradientTransform="matrix(1 0 0 -1 -1345 -1644.25)">
		<stop  offset="0" style="stop-color:#79FBC2;stop-opacity:0"/>
		<stop  offset="1" style="stop-color:#79FBC2"/>
	</linearGradient>
	<path id="圆角矩形_20_拷贝_3" class="st0" d="M43.1,5.9c0.5,0.8,0.2,1.9-0.6,2.4c0,0,0,0,0,0L16.9,23
		c-0.8,0.5-1.9,0.2-2.4-0.7s-0.2-1.9,0.7-2.4l0,0L40.7,5.2C41.5,4.8,42.6,5,43.1,5.9z"/>
	
		<linearGradient id="圆角矩形_20_拷贝_7_1_" gradientUnits="userSpaceOnUse" x1="1419.7396" y1="-1739.2485" x2="1419.7396" y2="-1721.0117" gradientTransform="matrix(1 0 0 -1 -1345 -1644.25)">
		<stop  offset="0" style="stop-color:#79FBC2"/>
		<stop  offset="1" style="stop-color:#79FBC2;stop-opacity:0"/>
	</linearGradient>
	<path id="圆角矩形_20_拷贝_7" class="st1" d="M89,77.7c0.5,0.8,0.2,1.9-0.6,2.4L62.9,94.8c-0.8,0.5-1.9,0.2-2.4-0.6
		s-0.2-1.9,0.6-2.4l0,0L86.6,77C87.4,76.5,88.5,76.8,89,77.7C89,77.6,89,77.6,89,77.7z"/>
	
		<linearGradient id="圆角矩形_20_拷贝_4_1_" gradientUnits="userSpaceOnUse" x1="1423.2743" y1="-1671.0183" x2="1423.2743" y2="-1652.7822" gradientTransform="matrix(1 0 0 -1 -1345 -1644.25)">
		<stop  offset="0" style="stop-color:#79FBC2"/>
		<stop  offset="1" style="stop-color:#79FBC2;stop-opacity:0"/>
	</linearGradient>
	<path id="圆角矩形_20_拷贝_4" class="st2" d="M92.6,25.9c-0.5,0.8-1.6,1.1-2.4,0.7c0,0,0,0,0,0L64.6,11.8
		c-0.8-0.5-1.1-1.5-0.7-2.4c0,0,0,0,0,0l0,0c0.5-0.8,1.6-1.1,2.4-0.6l25.5,14.7C92.8,24,93,25,92.6,25.9
		C92.6,25.9,92.6,25.9,92.6,25.9z"/>
	
		<linearGradient id="圆角矩形_20_拷贝_5_1_" gradientUnits="userSpaceOnUse" x1="1436.235" y1="-1678.37" x2="1436.235" y2="-1666.58" gradientTransform="matrix(1 0 0 -1 -1345 -1644.25)">
		<stop  offset="0" style="stop-color:#79FBC2"/>
		<stop  offset="1" style="stop-color:#79FBC2;stop-opacity:0"/>
	</linearGradient>
	<path id="圆角矩形_20_拷贝_5" class="st3" d="M91.5,34.1H91c-0.8,0-1.5-0.7-1.5-1.5v-8.8c0-0.8,0.7-1.5,1.5-1.5h0.5
		c0.8,0,1.5,0.7,1.5,1.5v8.8C93,33.4,92.3,34.1,91.5,34.1z"/>
	
		<linearGradient id="圆角矩形_20_拷贝_6_1_" gradientUnits="userSpaceOnUse" x1="1366.8375" y1="-1736.0177" x2="1366.8375" y2="-1717.5477" gradientTransform="matrix(1 0 0 -1 -1345 -1644.25)">
		<stop  offset="0" style="stop-color:#79FBC2;stop-opacity:0"/>
		<stop  offset="1" style="stop-color:#79FBC2"/>
	</linearGradient>
	<path id="圆角矩形_20_拷贝_6" class="st4" d="M7.4,74.2c0.5-0.8,1.6-1.1,2.4-0.7l25.7,14.9c0.8,0.5,1.1,1.6,0.7,2.4l0,0
		c-0.5,0.9-1.6,1.2-2.4,0.7c0,0,0,0,0,0L8.1,76.6C7.2,76.2,7,75.1,7.4,74.2C7.4,74.2,7.4,74.2,7.4,74.2z"/>
	
		<linearGradient id="圆角矩形_20_拷贝_6-2_1_" gradientUnits="userSpaceOnUse" x1="1353.78" y1="-1722.03" x2="1353.78" y2="-1710.13" gradientTransform="matrix(1 0 0 -1 -1345 -1644.25)">
		<stop  offset="0" style="stop-color:#79FBC2;stop-opacity:0"/>
		<stop  offset="1" style="stop-color:#79FBC2"/>
	</linearGradient>
	<path id="圆角矩形_20_拷贝_6-2" class="st5" d="M8.5,65.9h0.6c0.8,0,1.5,0.7,1.5,1.5l0,0v8.9c0,0.8-0.7,1.5-1.5,1.5H8.5
		c-0.8,0-1.5-0.7-1.5-1.5v-8.9C7,66.6,7.7,65.9,8.5,65.9L8.5,65.9z"/>
	
		<linearGradient id="多边形_1_拷贝_1_" gradientUnits="userSpaceOnUse" x1="1395.26" y1="-1732.0601" x2="1395.26" y2="-1656" gradientTransform="matrix(1 0 0 -1 -1345 -1644.25)">
		<stop  offset="0" style="stop-color:#19FFF4"/>
		<stop  offset="1" style="stop-color:#AEFFAE"/>
	</linearGradient>
	<path id="多边形_1_拷贝" class="st6" d="M83.2,68.8l-33,19l-33-19v-38l33-19l33,19V68.8z"/>
	<path id="_01_拷贝_2" class="st7" d="M59.7,47.9l13.8-7.6l0,0v16.2c0,3.1-2.7,7.1-5.9,8.8l-13.8,7.6l0,0V56.7
		C53.8,53.6,56.4,49.7,59.7,47.9z"/>
	<path id="_02_拷贝_2" class="st8" d="M43.2,47.9l-13.8-7.5l0,0v16.2c0,3.1,2.7,7,5.9,8.8l13.8,7.5l0,0V56.8
		C49.1,53.7,46.4,49.7,43.2,47.9z"/>
	<path id="_03_拷贝_2" class="st9" d="M31.5,36.4l13.8-6.9c3.3-1.6,8.2-1.8,11.1-0.4l14.8,7.4l0,0l-13.8,6.9
		c-3.3,1.6-8.2,1.8-11.1,0.4L31.5,36.4L31.5,36.4z"/>
</g>
</svg>
