<?xml version="1.0" encoding="utf-8"?>
<!-- Generator: Adobe Illustrator 25.0.0, SVG Export Plug-In . SVG Version: 6.00 Build 0)  -->
<svg version="1.1" id="icon_expand" xmlns="http://www.w3.org/2000/svg" xmlns:xlink="http://www.w3.org/1999/xlink" x="0px"
	 y="0px" viewBox="0 0 100 100" style="enable-background:new 0 0 100 100;" xml:space="preserve">
<style type="text/css">
	.st0{fill:none;stroke:url(#圆角矩形_19_拷贝_3_1_);}
	.st1{fill:url(#圆角矩形_19_拷贝_3-2_1_);}
	.st2{fill:none;stroke:url(#圆角矩形_19_拷贝_3-3_1_);}
	.st3{fill:url(#圆角矩形_19_拷贝_3-4_1_);}
	.st4{fill:url(#圆角矩形_20_拷贝_2_1_);}
	.st5{fill:url(#圆角矩形_20_拷贝_2-2_1_);}
	.st6{fill:url(#SVGID_1_);}
	.st7{fill:url(#SVGID_2_);}
	.st8{fill:url(#SVGID_3_);}
	.st9{fill:url(#SVGID_4_);}
	.st10{fill:url(#SVGID_5_);}
	.st11{fill:url(#SVGID_6_);}
</style>
<g>
	
		<linearGradient id="圆角矩形_19_拷贝_3_1_" gradientUnits="userSpaceOnUse" x1="1350" y1="1418.765" x2="1378" y2="1418.765" gradientTransform="matrix(1 0 0 1 -1336.5 -1389.265)">
		<stop  offset="0" style="stop-color:#19FFF4"/>
		<stop  offset="1" style="stop-color:#AEFFAE"/>
	</linearGradient>
	<path id="圆角矩形_19_拷贝_3" class="st0" d="M17.5,15.5h20c2.2,0,4,1.8,4,4v20c0,2.2-1.8,4-4,4h-20c-2.2,0-4-1.8-4-4v-20
		C13.5,17.3,15.3,15.5,17.5,15.5z"/>
	
		<linearGradient id="圆角矩形_19_拷贝_3-2_1_" gradientUnits="userSpaceOnUse" x1="19.5" y1="-42.5" x2="35.5" y2="-42.5" gradientTransform="matrix(1 0 0 1 0 72)">
		<stop  offset="0" style="stop-color:#19FFF4"/>
		<stop  offset="1" style="stop-color:#AEFFAE"/>
	</linearGradient>
	<path id="圆角矩形_19_拷贝_3-2" class="st1" d="M23.5,21.5h8c2.2,0,4,1.8,4,4v8c0,2.2-1.8,4-4,4h-8c-2.2,0-4-1.8-4-4v-8
		C19.5,23.3,21.3,21.5,23.5,21.5z"/>
	
		<linearGradient id="圆角矩形_19_拷贝_3-3_1_" gradientUnits="userSpaceOnUse" x1="1395" y1="1459.765" x2="1423" y2="1459.765" gradientTransform="matrix(1 0 0 1 -1336.5 -1389.265)">
		<stop  offset="0" style="stop-color:#19FFF4"/>
		<stop  offset="1" style="stop-color:#AEFFAE"/>
	</linearGradient>
	<path id="圆角矩形_19_拷贝_3-3" class="st2" d="M62.5,56.5h20c2.2,0,4,1.8,4,4v20c0,2.2-1.8,4-4,4h-20c-2.2,0-4-1.8-4-4v-20
		C58.5,58.3,60.3,56.5,62.5,56.5z"/>
	
		<linearGradient id="圆角矩形_19_拷贝_3-4_1_" gradientUnits="userSpaceOnUse" x1="64.5" y1="-1.5" x2="80.5" y2="-1.5" gradientTransform="matrix(1 0 0 1 0 72)">
		<stop  offset="0" style="stop-color:#19FFF4"/>
		<stop  offset="1" style="stop-color:#AEFFAE"/>
	</linearGradient>
	<path id="圆角矩形_19_拷贝_3-4" class="st3" d="M68.5,62.5h8c2.2,0,4,1.8,4,4v8c0,2.2-1.8,4-4,4h-8c-2.2,0-4-1.8-4-4v-8
		C64.5,64.3,66.3,62.5,68.5,62.5z"/>
	
		<linearGradient id="圆角矩形_20_拷贝_2_1_" gradientUnits="userSpaceOnUse" x1="16" y1="11.535" x2="16" y2="-16.465" gradientTransform="matrix(1 0 0 1 0 72)">
		<stop  offset="0" style="stop-color:#79FBC2;stop-opacity:0"/>
		<stop  offset="1" style="stop-color:#79FBC2"/>
	</linearGradient>
	<path id="圆角矩形_20_拷贝_2" class="st4" d="M16,55.5L16,55.5c0.8,0,1.5,0.7,1.5,1.5v25c0,0.8-0.7,1.5-1.5,1.5l0,0
		c-0.8,0-1.5-0.7-1.5-1.5V57C14.5,56.2,15.2,55.5,16,55.5z"/>
	
		<linearGradient id="圆角矩形_20_拷贝_2-2_1_" gradientUnits="userSpaceOnUse" x1="83" y1="-27.465" x2="83" y2="-55.465" gradientTransform="matrix(1 0 0 1 0 72)">
		<stop  offset="0" style="stop-color:#79FBC2;stop-opacity:0"/>
		<stop  offset="1" style="stop-color:#79FBC2"/>
	</linearGradient>
	<path id="圆角矩形_20_拷贝_2-2" class="st5" d="M83,16.5L83,16.5c0.8,0,1.5,0.7,1.5,1.5v25c0,0.8-0.7,1.5-1.5,1.5l0,0
		c-0.8,0-1.5-0.7-1.5-1.5V18C81.5,17.2,82.2,16.5,83,16.5z"/>
	<g>
		<g>
			
				<linearGradient id="SVGID_1_" gradientUnits="userSpaceOnUse" x1="56.5491" y1="79.9" x2="72.8491" y2="79.9" gradientTransform="matrix(1 0 0 -1 0 100)">
				<stop  offset="0" style="stop-color:#19FFF4"/>
				<stop  offset="1" style="stop-color:#AEFFAE"/>
			</linearGradient>
			<path class="st6" d="M56.5,23.7c0-0.2,0.1-0.5,0.3-0.6l7.2-7.3c0.4-0.4,0.9-0.4,1.3,0l7.2,7.2c0.4,0.4,0.4,0.9,0,1.3
				s-0.9,0.4-1.3,0l-6.5-6.5l-6.6,6.6c-0.4,0.4-0.9,0.4-1.3,0C56.6,24.2,56.5,23.9,56.5,23.7L56.5,23.7z"/>
			
				<linearGradient id="SVGID_2_" gradientUnits="userSpaceOnUse" x1="56.4519" y1="74.5125" x2="72.9232" y2="74.5125" gradientTransform="matrix(1 0 0 -1 0 100)">
				<stop  offset="0" style="stop-color:#19FFF4"/>
				<stop  offset="1" style="stop-color:#AEFFAE"/>
			</linearGradient>
			<path class="st7" d="M56.7,29.9c-0.3-0.3-0.3-0.9,0-1.2l7.4-7.4c0.3-0.3,0.9-0.3,1.2,0l7.4,7.4c0.3,0.3,0.3,0.9,0,1.2"/>
			
				<linearGradient id="SVGID_3_" gradientUnits="userSpaceOnUse" x1="50.1" y1="64.3881" x2="68.2431" y2="64.3881" gradientTransform="matrix(1 0 0 -1 0 100)">
				<stop  offset="0" style="stop-color:#19FFF4"/>
				<stop  offset="1" style="stop-color:#AEFFAE"/>
			</linearGradient>
			<path class="st8" d="M61.1,29.9c0,0,0.8,10.2-11,8.4c0,0,5.6,4.8,11.5,2.5c2.2-1.1,6.6-2.5,6.6-11L61.1,29.9z"/>
		</g>
	</g>
	<g>
		<g>
			
				<linearGradient id="SVGID_4_" gradientUnits="userSpaceOnUse" x1="29.161" y1="38.65" x2="45.461" y2="38.65" gradientTransform="matrix(1 0 0 -1 0 100)">
				<stop  offset="0" style="stop-color:#19FFF4"/>
				<stop  offset="1" style="stop-color:#AEFFAE"/>
			</linearGradient>
			<path class="st9" d="M29.2,64.9c0-0.2,0.1-0.5,0.3-0.6l7.2-7.2c0.4-0.4,0.9-0.4,1.3,0l7.2,7.2c0.4,0.4,0.4,0.9,0,1.3
				s-0.9,0.4-1.3,0L37.3,59l-6.6,6.6c-0.4,0.4-0.9,0.4-1.3,0C29.2,65.4,29.2,65.1,29.2,64.9L29.2,64.9z"/>
			
				<linearGradient id="SVGID_5_" gradientUnits="userSpaceOnUse" x1="29.075" y1="33.2125" x2="45.5463" y2="33.2125" gradientTransform="matrix(1 0 0 -1 0 100)">
				<stop  offset="0" style="stop-color:#19FFF4"/>
				<stop  offset="1" style="stop-color:#AEFFAE"/>
			</linearGradient>
			<path class="st10" d="M29.3,71.2c-0.3-0.3-0.3-0.9,0-1.2l7.4-7.4c0.3-0.3,0.9-0.3,1.2,0l7.4,7.4c0.3,0.3,0.3,0.9,0,1.2"/>
			
				<linearGradient id="SVGID_6_" gradientUnits="userSpaceOnUse" x1="22.7" y1="23.0881" x2="40.8431" y2="23.0881" gradientTransform="matrix(1 0 0 -1 0 100)">
				<stop  offset="0" style="stop-color:#19FFF4"/>
				<stop  offset="1" style="stop-color:#AEFFAE"/>
			</linearGradient>
			<path class="st11" d="M33.7,71.2c0,0,0.8,10.2-11,8.4c0,0,5.6,4.8,11.5,2.5c2.2-1.1,6.6-2.5,6.6-11L33.7,71.2z"/>
		</g>
	</g>
</g>
</svg>
