<?xml version="1.0" encoding="utf-8"?>
<!-- Generator: Adobe Illustrator 27.0.0, SVG Export Plug-In . SVG Version: 6.00 Build 0)  -->
<svg version="1.1" id="v2" xmlns="http://www.w3.org/2000/svg" xmlns:xlink="http://www.w3.org/1999/xlink" x="0px" y="0px"
	 viewBox="0 0 512 512" style="enable-background:new 0 0 512 512;" xml:space="preserve">
<style type="text/css">
	.st0{fill-rule:evenodd;clip-rule:evenodd;fill:#FFFFFF;}
</style>
<path id="_120x140_8" class="st0" d="M336.1,228.7L470,152.3l0,0V316c0,31.3-25.7,71.3-57.4,89.4l-133.9,76.4l0,0V318.1
	C278.7,286.8,304.4,246.7,336.1,228.7z"/>
<path id="_120x140_9" class="st0" d="M175.9,229.2L42,152.9l0,0v163.5c0,31.3,25.7,71.2,57.4,89.3L233.3,482l0,0V318.5
	C233.3,287.2,207.6,247.2,175.9,229.2z"/>
<path id="circle_square_5_4" class="st0" d="M62.8,112.9l134.1-69.4c31.7-16.4,79.8-18.2,107.3-4L448,114l0,0l-134.1,69.4
	c-31.7,16.4-79.8,18.2-107.3,4L62.8,112.9L62.8,112.9z"/>
</svg>
