<?xml version="1.0" encoding="utf-8"?>
<svg version="1.1" xmlns="http://www.w3.org/2000/svg" x="0px" y="0px"
	 viewBox="0 0 36 36" style="enable-background:new 0 0 36 36;" xml:space="preserve">
<style type="text/css">
	.st0{fill:#96FA96;}
</style>
<g>
	<g>
		<path class="st0" d="M30.45,10c-0.73-0.73-1.91-0.73-2.64,0L15.68,22.06l-7.49-7.42c-0.73-0.73-1.91-0.73-2.64,0
			c-0.73,0.73-0.73,1.9,0,2.63l8.8,8.72c0,0,0.01,0.01,0.01,0.01c0.36,0.36,0.84,0.54,1.32,0.54c0.48,0,0.96-0.18,1.32-0.54
			c0,0,0.01-0.01,0.01-0.01l13.44-13.37C31.18,11.9,31.18,10.72,30.45,10L30.45,10z M30.45,10"/>
	</g>
</g>
</svg>
