<?xml version="1.0" encoding="utf-8"?>
<svg version="1.1" xmlns="http://www.w3.org/2000/svg" x="0px" y="0px"
	 viewBox="0 0 36 36" style="enable-background:new 0 0 36 36;" xml:space="preserve">
<style type="text/css">
	.st0{fill:#F27586;stroke:#F27586;stroke-miterlimit:10;}
</style>
<g>
	<g>
		<path class="st0" d="M25.69,10.31c0.42,0.42,0.42,1.1,0,1.52L11.83,25.69c-0.42,0.42-1.1,0.42-1.52,0c-0.42-0.42-0.42-1.1,0-1.52
			l13.86-13.86C24.59,9.9,25.27,9.9,25.69,10.31L25.69,10.31z M25.69,10.31"/>
		<path class="st0" d="M10.31,10.31c0.42-0.42,1.1-0.42,1.52,0l13.86,13.86c0.42,0.42,0.42,1.1,0,1.52c-0.42,0.42-1.1,0.42-1.52,0
			L10.31,11.83C9.9,11.41,9.9,10.73,10.31,10.31L10.31,10.31z M10.31,10.31"/>
	</g>
</g>
</svg>
