<?xml version="1.0" encoding="utf-8"?>
<svg version="1.1" xmlns="http://www.w3.org/2000/svg" x="0px" y="0px"
	 viewBox="0 0 132 34" style="enable-background:new 0 0 132 34;" xml:space="preserve">
<style type="text/css">
	.st0{fill:#fff;stroke:#CCCCCC;stroke-linejoin:round;}
	.st1{fill:#fff;}
</style>
<g>
	<g>
		<path class="st0" d="M10.44,32.9v-7.98l-9.87-5.77L10.44,32.9z"/>
		<path class="st0" d="M10.47,32.9v-7.98l9.87-5.77L10.47,32.9z"/>
		<path class="st0" d="M10.44,22.94V12.76l-9.98,4.47L10.44,22.94z"/>
		<path class="st0" d="M10.47,22.94V12.76l9.98,4.47L10.47,22.94z"/>
		<path class="st0" d="M0.46,17.23L10.44,1.1v11.66L0.46,17.23z"/>
		<path class="st0" d="M20.46,17.23L10.47,1.1v11.66L20.46,17.23z"/>
	</g>
	<g>
		<path class="st1" d="M40.09,11.21v1.15h-6.88v3.88h6.49v1.15h-6.49v4.25h7.16v1.15h-8.49V11.21H40.09z"/>
		<path class="st1" d="M50.83,11.21v1.15h-4.09V22.8h-1.32V12.36h-4.09v-1.15H50.83z"/>
		<path class="st1" d="M53.61,11.21v5.03h6.7v-5.03h1.33V22.8h-1.33v-5.4h-6.7v5.4h-1.33V11.21H53.61z"/>
		<path class="st1" d="M76.36,11.87c0.78,0.62,1.22,1.54,1.33,2.76h-1.32c-0.15-0.84-0.47-1.46-0.97-1.87
			c-0.52-0.42-1.25-0.62-2.19-0.62c-0.86,0-1.53,0.13-2.01,0.42c-0.55,0.32-0.83,0.81-0.83,1.48c0,0.58,0.33,1.05,0.99,1.41
			c0.29,0.16,1.01,0.41,2.13,0.73c1.53,0.45,2.53,0.83,3.02,1.12c0.96,0.58,1.44,1.4,1.44,2.45c0,1.01-0.41,1.82-1.22,2.4
			c-0.81,0.57-1.9,0.86-3.28,0.86c-1.36,0-2.43-0.29-3.21-0.88c-0.91-0.7-1.41-1.75-1.51-3.18h1.32c0.11,1.01,0.47,1.75,1.05,2.22
			c0.54,0.42,1.32,0.65,2.35,0.65c0.94,0,1.72-0.18,2.3-0.54s0.88-0.84,0.88-1.46c0-0.73-0.39-1.3-1.15-1.7
			c-0.33-0.19-1.15-0.47-2.45-0.84c-1.4-0.42-2.29-0.75-2.66-0.94c-0.89-0.52-1.33-1.27-1.33-2.24c0-1.01,0.42-1.8,1.28-2.35
			c0.76-0.52,1.75-0.78,2.95-0.78C74.57,10.98,75.61,11.27,76.36,11.87z"/>
		<path class="st1" d="M86.62,11.87c0.78,0.62,1.22,1.54,1.33,2.76h-1.32c-0.15-0.84-0.47-1.46-0.97-1.87
			c-0.52-0.42-1.25-0.62-2.19-0.62c-0.86,0-1.53,0.13-2.01,0.42c-0.55,0.32-0.83,0.81-0.83,1.48c0,0.58,0.33,1.05,0.99,1.41
			c0.29,0.16,1.01,0.41,2.13,0.73c1.53,0.45,2.53,0.83,3.02,1.12c0.96,0.58,1.44,1.4,1.44,2.45c0,1.01-0.41,1.82-1.22,2.4
			c-0.81,0.57-1.9,0.86-3.28,0.86c-1.36,0-2.43-0.29-3.21-0.88c-0.91-0.7-1.41-1.75-1.51-3.18h1.32c0.11,1.01,0.47,1.75,1.05,2.22
			c0.54,0.42,1.32,0.65,2.35,0.65c0.94,0,1.72-0.18,2.3-0.54s0.88-0.84,0.88-1.46c0-0.73-0.39-1.3-1.15-1.7
			c-0.33-0.19-1.15-0.47-2.45-0.84c-1.4-0.42-2.29-0.75-2.66-0.94c-0.89-0.52-1.33-1.27-1.33-2.24c0-1.01,0.42-1.8,1.28-2.35
			c0.76-0.52,1.75-0.78,2.95-0.78C84.84,10.98,85.88,11.27,86.62,11.87z"/>
		<path class="st1" d="M98.51,11.21v1.15h-4.09V22.8h-1.31V12.36h-4.09v-1.15H98.51z"/>
		<path class="st1" d="M109.13,12.72c0.94,1.1,1.43,2.53,1.43,4.3c0,1.75-0.49,3.16-1.43,4.27c-1.01,1.15-2.39,1.74-4.12,1.74
			c-1.74,0-3.1-0.58-4.11-1.74c-0.96-1.1-1.43-2.53-1.43-4.27c0-1.75,0.47-3.18,1.43-4.29c1.01-1.17,2.37-1.75,4.12-1.75
			C106.74,10.98,108.12,11.55,109.13,12.72z M101.87,13.54c-0.71,0.88-1.07,2.03-1.07,3.47c0,1.43,0.36,2.58,1.07,3.46
			c0.75,0.91,1.8,1.36,3.13,1.36s2.39-0.45,3.13-1.33c0.71-0.88,1.09-2.03,1.09-3.49c0-1.48-0.37-2.65-1.09-3.52
			c-0.75-0.89-1.79-1.33-3.12-1.33C103.69,12.16,102.64,12.62,101.87,13.54z"/>
		<path class="st1" d="M117.42,11.21c1.15,0,2.06,0.26,2.73,0.8c0.68,0.55,1.04,1.36,1.04,2.43c0,0.65-0.18,1.22-0.54,1.72
			c-0.39,0.52-0.91,0.84-1.57,1.01v0.03c1.1,0.24,1.72,0.94,1.85,2.11l0.18,1.79c0.06,0.71,0.28,1.28,0.62,1.7h-1.44
			c-0.26-0.39-0.42-0.89-0.47-1.54l-0.15-1.54c-0.06-0.68-0.31-1.18-0.73-1.48c-0.39-0.29-0.94-0.42-1.67-0.42h-3.51v4.98h-1.33
			V11.21H117.42z M113.75,16.66h3.51c0.84,0,1.51-0.21,1.96-0.6c0.41-0.37,0.62-0.89,0.62-1.57c0-0.71-0.21-1.25-0.6-1.59
			c-0.42-0.36-1.09-0.54-1.98-0.54h-3.51V16.66z"/>
		<path class="st1" d="M131.61,11.21v1.15h-6.88v3.88h6.49v1.15h-6.49v4.25h7.16v1.15h-8.49V11.21H131.61z"/>
	</g>
</g>
</svg>
