<?xml version="1.0" encoding="utf-8"?>
<svg version="1.1" xmlns="http://www.w3.org/2000/svg" x="0px" y="0px"
	 viewBox="0 0 180 32" style="enable-background:new 0 0 180 32;" xml:space="preserve">
<style type="text/css">
	.st0{fill:#fff;}
	.st1{fill:none;stroke:#fff;stroke-width:2.5;}
</style>
<g>
	<path class="st0" d="M50.17,20.83c-0.07-0.14-0.13-0.29-0.17-0.48c-0.05-0.18-0.09-0.36-0.12-0.57c-0.16,0.17-0.34,0.33-0.55,0.49
		c-0.2,0.15-0.43,0.28-0.69,0.4c-0.25,0.11-0.53,0.19-0.83,0.26s-0.63,0.1-0.98,0.1c-0.58,0-1.1-0.08-1.58-0.24
		c-0.48-0.16-0.88-0.39-1.23-0.69c-0.34-0.29-0.62-0.65-0.81-1.05c-0.19-0.41-0.29-0.86-0.29-1.34c0-1.17,0.43-2.08,1.31-2.73
		s2.19-0.97,3.93-0.97h1.6v-0.66c0-0.54-0.17-0.96-0.53-1.27c-0.35-0.31-0.86-0.48-1.52-0.48c-0.59,0-1.01,0.13-1.28,0.38
		c-0.27,0.25-0.4,0.59-0.4,1h-2.87c0-0.48,0.1-0.93,0.31-1.35c0.21-0.42,0.52-0.8,0.92-1.12c0.4-0.32,0.9-0.58,1.48-0.77
		c0.59-0.19,1.25-0.29,2-0.29c0.68,0,1.3,0.08,1.88,0.25c0.59,0.16,1.09,0.41,1.52,0.73c0.42,0.32,0.76,0.74,1,1.23
		s0.36,1.05,0.36,1.7v4.79c0,0.6,0.04,1.09,0.11,1.49s0.18,0.73,0.33,1.01v0.17C53.08,20.83,50.17,20.83,50.17,20.83z M47.43,18.82
		c0.29,0,0.56-0.03,0.81-0.1s0.48-0.16,0.67-0.27c0.2-0.11,0.37-0.23,0.52-0.37c0.14-0.14,0.26-0.29,0.34-0.43v-1.92H48.3
		c-0.44,0-0.83,0.04-1.14,0.13c-0.31,0.08-0.58,0.2-0.78,0.36c-0.2,0.15-0.34,0.33-0.44,0.56c-0.1,0.21-0.14,0.44-0.14,0.7
		c0,0.38,0.13,0.71,0.4,0.96C46.47,18.69,46.89,18.82,47.43,18.82z"/>
	<path class="st0" d="M63.91,9.46c0.43,0,0.83,0.03,1.19,0.09c0.37,0.05,0.67,0.12,0.9,0.18l-0.42,2.86
		c-0.37-0.09-0.77-0.15-1.16-0.19c-0.39-0.05-0.77-0.07-1.12-0.07c-0.81,0-1.46,0.15-1.94,0.47c-0.49,0.31-0.84,0.76-1.08,1.33v6.71
		H57.4V9.66h2.67l0.13,1.83c0.45-0.64,1-1.13,1.63-1.49C62.47,9.64,63.16,9.46,63.91,9.46z"/>
	<path class="st0" d="M75.73,17.33l0.97-7.67h2.63l-2,11.17h-2.52l-1.47-7.1l-1.42,7.1H69.4l-2-11.17h2.62l0.97,7.7l1.41-7.7h1.92
		L75.73,17.33z"/>
	<path class="st0" d="M86.7,21.03c-0.86,0-1.64-0.14-2.35-0.42s-1.3-0.67-1.81-1.14c-0.51-0.49-0.89-1.06-1.16-1.71
		c-0.27-0.66-0.4-1.36-0.4-2.11v-0.41c0-0.85,0.13-1.63,0.4-2.34c0.27-0.71,0.65-1.31,1.12-1.83c0.49-0.51,1.05-0.91,1.71-1.18
		c0.66-0.28,1.37-0.42,2.15-0.42c0.81,0,1.52,0.13,2.14,0.4c0.64,0.26,1.16,0.64,1.6,1.11c0.44,0.49,0.78,1.06,1,1.75
		c0.22,0.68,0.34,1.43,0.34,2.24v1.21h-7.57c0.05,0.37,0.16,0.73,0.33,1.04c0.17,0.31,0.38,0.58,0.65,0.81
		c0.26,0.22,0.56,0.4,0.9,0.53c0.33,0.12,0.71,0.18,1.1,0.18c0.28,0,0.56-0.03,0.84-0.08s0.55-0.13,0.81-0.23
		c0.25-0.11,0.5-0.24,0.71-0.4c0.22-0.16,0.41-0.34,0.58-0.56l1.44,1.55c-0.18,0.25-0.41,0.51-0.7,0.76
		c-0.28,0.24-0.62,0.45-1.01,0.65c-0.38,0.18-0.82,0.33-1.29,0.45C87.77,20.98,87.25,21.03,86.7,21.03z M86.36,11.78
		c-0.32,0-0.62,0.06-0.89,0.17s-0.51,0.27-0.71,0.49c-0.2,0.21-0.36,0.47-0.51,0.77c-0.14,0.29-0.24,0.63-0.31,0.99h4.71v-0.22
		c-0.01-0.3-0.07-0.59-0.17-0.86s-0.25-0.5-0.44-0.69c-0.19-0.2-0.43-0.35-0.71-0.47C87.04,11.83,86.73,11.78,86.36,11.78z"/>
	<path class="st0" d="M100.96,20.83c-0.07-0.14-0.13-0.29-0.17-0.48c-0.05-0.18-0.09-0.36-0.12-0.57c-0.16,0.17-0.34,0.33-0.55,0.49
		c-0.21,0.15-0.43,0.28-0.69,0.4c-0.25,0.11-0.53,0.19-0.83,0.26s-0.63,0.1-0.98,0.1c-0.58,0-1.1-0.08-1.58-0.24
		s-0.88-0.39-1.22-0.69c-0.34-0.29-0.62-0.65-0.81-1.05c-0.19-0.41-0.29-0.86-0.29-1.34c0-1.17,0.43-2.08,1.31-2.73
		s2.19-0.97,3.93-0.97h1.6v-0.66c0-0.54-0.17-0.96-0.53-1.27c-0.35-0.31-0.86-0.48-1.52-0.48c-0.59,0-1.01,0.13-1.28,0.38
		c-0.27,0.25-0.4,0.59-0.4,1h-2.87c0-0.48,0.1-0.93,0.31-1.35s0.52-0.8,0.92-1.12s0.9-0.58,1.48-0.77c0.59-0.19,1.25-0.29,2-0.29
		c0.68,0,1.3,0.08,1.88,0.25c0.59,0.16,1.09,0.41,1.52,0.73c0.42,0.32,0.76,0.74,1,1.23s0.36,1.05,0.36,1.7v4.79
		c0,0.6,0.04,1.09,0.11,1.49c0.07,0.39,0.18,0.73,0.33,1.01v0.17C103.88,20.83,100.96,20.83,100.96,20.83z M98.22,18.82
		c0.29,0,0.56-0.03,0.81-0.1c0.24-0.07,0.48-0.16,0.67-0.27c0.2-0.11,0.37-0.23,0.52-0.37c0.14-0.14,0.25-0.29,0.34-0.43v-1.92
		h-1.47c-0.44,0-0.83,0.04-1.14,0.13c-0.31,0.08-0.58,0.2-0.77,0.36c-0.2,0.15-0.34,0.33-0.44,0.56c-0.1,0.21-0.14,0.44-0.14,0.7
		c0,0.38,0.13,0.71,0.4,0.96C97.26,18.69,97.68,18.82,98.22,18.82z"/>
	<path class="st0" d="M111.43,17.52l0.14,0.81l0.14-0.78l2.46-7.89h2.99l-4.25,11.17h-2.7l-4.27-11.17h2.99L111.43,17.52z"/>
	<path class="st0" d="M124.79,21.03c-0.86,0-1.64-0.14-2.35-0.42c-0.7-0.28-1.3-0.67-1.81-1.14c-0.51-0.49-0.89-1.06-1.16-1.71
		c-0.26-0.66-0.4-1.36-0.4-2.11v-0.41c0-0.85,0.13-1.63,0.4-2.34c0.27-0.71,0.65-1.31,1.12-1.83c0.49-0.51,1.05-0.91,1.71-1.18
		c0.66-0.28,1.37-0.42,2.15-0.42c0.81,0,1.52,0.13,2.14,0.4c0.64,0.26,1.16,0.64,1.6,1.11c0.43,0.49,0.77,1.06,1,1.75
		c0.23,0.68,0.34,1.43,0.34,2.24v1.21h-7.58c0.05,0.37,0.16,0.73,0.33,1.04c0.17,0.31,0.39,0.58,0.65,0.81
		c0.26,0.22,0.57,0.4,0.9,0.53s0.71,0.18,1.1,0.18c0.28,0,0.56-0.03,0.84-0.08s0.55-0.13,0.81-0.23c0.25-0.11,0.5-0.24,0.71-0.4
		c0.22-0.16,0.41-0.34,0.58-0.56l1.44,1.55c-0.18,0.25-0.41,0.51-0.7,0.76c-0.28,0.24-0.62,0.45-1.01,0.65
		c-0.38,0.18-0.82,0.33-1.29,0.45C125.85,20.98,125.35,21.03,124.79,21.03z M124.46,11.78c-0.32,0-0.62,0.06-0.89,0.17
		s-0.51,0.27-0.72,0.49c-0.2,0.21-0.36,0.47-0.51,0.77c-0.14,0.29-0.24,0.63-0.31,0.99h4.71v-0.22c-0.01-0.3-0.07-0.59-0.17-0.86
		s-0.25-0.5-0.44-0.69c-0.19-0.2-0.43-0.35-0.72-0.47C125.14,11.83,124.82,11.78,124.46,11.78z"/>
	<path class="st0" d="M134.97,19.17c0-0.27,0.04-0.52,0.13-0.75c0.09-0.23,0.22-0.43,0.39-0.6s0.38-0.3,0.63-0.4
		s0.53-0.15,0.84-0.15s0.59,0.05,0.84,0.15c0.24,0.1,0.45,0.23,0.62,0.4c0.17,0.16,0.3,0.36,0.39,0.6c0.1,0.22,0.14,0.48,0.14,0.75
		c0,0.26-0.05,0.51-0.14,0.73s-0.22,0.42-0.39,0.6c-0.16,0.16-0.37,0.29-0.62,0.39c-0.24,0.1-0.53,0.14-0.84,0.14
		s-0.59-0.05-0.84-0.14c-0.24-0.1-0.45-0.22-0.63-0.39s-0.3-0.37-0.39-0.6C135.01,19.68,134.97,19.44,134.97,19.17z"/>
	<path class="st0" d="M144.37,15.14c0-0.81,0.11-1.57,0.35-2.25c0.23-0.7,0.58-1.29,1.02-1.81c0.45-0.51,1-0.91,1.65-1.19
		c0.66-0.29,1.41-0.43,2.24-0.43s1.59,0.14,2.24,0.43c0.66,0.29,1.2,0.69,1.65,1.19c0.45,0.51,0.8,1.11,1.03,1.81
		c0.23,0.69,0.35,1.44,0.35,2.25v0.21c0,0.82-0.12,1.58-0.35,2.27c-0.23,0.69-0.58,1.28-1.02,1.8c-0.44,0.51-1,0.91-1.65,1.19
		c-0.66,0.28-1.4,0.42-2.23,0.42c-0.84,0-1.59-0.14-2.25-0.42c-0.66-0.29-1.2-0.69-1.66-1.19c-0.44-0.51-0.79-1.11-1.02-1.8
		c-0.23-0.7-0.35-1.46-0.35-2.27V15.14L144.37,15.14z M147.24,15.36c0,0.47,0.04,0.91,0.13,1.32c0.09,0.4,0.23,0.77,0.42,1.07
		s0.44,0.55,0.75,0.72c0.31,0.18,0.68,0.27,1.11,0.27c0.42,0,0.78-0.09,1.08-0.27s0.55-0.42,0.74-0.72
		c0.19-0.31,0.33-0.67,0.42-1.07c0.09-0.41,0.13-0.85,0.13-1.32v-0.21c0-0.45-0.04-0.88-0.13-1.29c-0.09-0.4-0.23-0.77-0.42-1.07
		c-0.18-0.31-0.43-0.56-0.74-0.74c-0.3-0.18-0.67-0.27-1.1-0.27c-0.42,0-0.79,0.09-1.09,0.27s-0.56,0.42-0.75,0.74
		c-0.19,0.31-0.33,0.67-0.42,1.07s-0.13,0.84-0.13,1.29V15.36L147.24,15.36z"/>
	<path class="st0" d="M165.48,9.46c0.43,0,0.83,0.03,1.19,0.09c0.37,0.05,0.67,0.12,0.9,0.18l-0.42,2.86
		c-0.38-0.09-0.77-0.15-1.16-0.19c-0.39-0.05-0.77-0.07-1.12-0.07c-0.81,0-1.46,0.15-1.94,0.47c-0.49,0.31-0.84,0.76-1.08,1.33v6.71
		h-2.87V9.66h2.67l0.13,1.83c0.45-0.64,1-1.13,1.63-1.49C164.05,9.64,164.73,9.46,165.48,9.46z"/>
	<path class="st0" d="M169.87,15.16c0-0.85,0.1-1.62,0.31-2.33c0.21-0.7,0.52-1.3,0.91-1.81s0.87-0.89,1.43-1.16
		c0.56-0.27,1.18-0.41,1.89-0.41c0.66,0,1.21,0.11,1.68,0.33c0.47,0.22,0.87,0.54,1.19,0.94l0.11-1.06H180v10.81
		c0,0.76-0.13,1.44-0.39,2.02c-0.25,0.6-0.62,1.09-1.08,1.5c-0.47,0.4-1.02,0.71-1.67,0.92c-0.65,0.21-1.36,0.32-2.14,0.32
		c-0.33,0-0.7-0.03-1.08-0.1s-0.77-0.17-1.14-0.32c-0.37-0.14-0.74-0.33-1.07-0.56s-0.63-0.49-0.87-0.8l1.29-1.75
		c0.36,0.41,0.78,0.73,1.24,0.94c0.47,0.22,0.96,0.33,1.5,0.33c0.81,0,1.44-0.21,1.88-0.65c0.45-0.42,0.68-1.03,0.68-1.83v-0.64
		c-0.33,0.37-0.74,0.66-1.18,0.87c-0.44,0.2-0.97,0.31-1.56,0.31c-0.7,0-1.32-0.14-1.88-0.42c-0.55-0.29-1.02-0.69-1.42-1.18
		c-0.39-0.51-0.7-1.1-0.91-1.79c-0.2-0.7-0.31-1.45-0.31-2.26v-0.22C169.89,15.16,169.87,15.16,169.87,15.16z M172.75,15.38
		c0,0.47,0.04,0.91,0.13,1.31c0.1,0.39,0.24,0.75,0.43,1.05c0.19,0.29,0.43,0.53,0.73,0.7c0.29,0.17,0.65,0.26,1.05,0.26
		c0.51,0,0.91-0.1,1.24-0.29s0.6-0.47,0.79-0.81v-4.73c-0.19-0.35-0.45-0.62-0.79-0.81c-0.32-0.19-0.73-0.29-1.22-0.29
		c-0.4,0-0.76,0.09-1.05,0.27c-0.29,0.17-0.55,0.41-0.75,0.72c-0.19,0.3-0.33,0.66-0.43,1.07c-0.1,0.4-0.14,0.84-0.14,1.31v0.23
		h0.01V15.38z"/>
	<circle class="st1" cx="16.82" cy="16" r="14.82"/>
	<path class="st0" d="M19.59,21.36c-0.07-0.14-0.13-0.31-0.18-0.5c-0.05-0.19-0.09-0.38-0.13-0.6c-0.16,0.18-0.35,0.35-0.58,0.51
		c-0.21,0.16-0.45,0.3-0.73,0.42c-0.26,0.11-0.55,0.2-0.86,0.27s-0.66,0.11-1.02,0.11c-0.6,0-1.15-0.09-1.65-0.26
		s-0.93-0.41-1.28-0.73c-0.36-0.31-0.64-0.68-0.84-1.1c-0.2-0.43-0.3-0.9-0.3-1.41c0-1.23,0.45-2.18,1.37-2.85
		c0.92-0.68,2.29-1.01,4.11-1.01h1.68v-0.69c0-0.57-0.18-1-0.55-1.32c-0.36-0.33-0.9-0.5-1.59-0.5c-0.62,0-1.06,0.13-1.33,0.4
		c-0.28,0.26-0.42,0.61-0.42,1.05h-3c0-0.5,0.11-0.97,0.32-1.42c0.22-0.44,0.55-0.84,0.96-1.17c0.42-0.33,0.94-0.61,1.55-0.8
		c0.62-0.2,1.31-0.3,2.09-0.3c0.71,0,1.36,0.09,1.96,0.26c0.62,0.17,1.14,0.42,1.59,0.77c0.44,0.33,0.8,0.77,1.05,1.28
		c0.25,0.52,0.37,1.1,0.37,1.78v5.01c0,0.63,0.04,1.14,0.12,1.56c0.08,0.41,0.19,0.76,0.34,1.06v0.18L19.59,21.36L19.59,21.36
		L19.59,21.36z M16.73,19.26c0.3,0,0.59-0.04,0.84-0.11c0.26-0.07,0.5-0.16,0.7-0.28c0.21-0.11,0.38-0.24,0.54-0.38
		c0.15-0.15,0.27-0.3,0.35-0.45v-2.01h-1.54c-0.47,0-0.87,0.05-1.2,0.14c-0.33,0.09-0.6,0.21-0.81,0.37s-0.36,0.35-0.47,0.59
		c-0.1,0.22-0.15,0.47-0.15,0.74c0,0.4,0.14,0.74,0.42,1C15.72,19.11,16.15,19.26,16.73,19.26z"/>
</g>
</svg>
