<?xml version="1.0" encoding="utf-8"?>
<svg version="1.1" xmlns="http://www.w3.org/2000/svg" x="0px" y="0px"
	 viewBox="0 0 112 28" style="enable-background:new 0 0 112 28;" xml:space="preserve">
<style type="text/css">
	.st0{fill:#fff;}
	.st1{fill-rule:evenodd;clip-rule:evenodd;fill:#0090FF;}
	.st2{fill-rule:evenodd;clip-rule:evenodd;fill:#fff;}
</style>
<g>
	<g>
		<path class="st0" d="M50.73,6.98v1.96h-7.26v3.89h6.85v1.96h-6.85v6.2h-2.3V6.98H50.73z"/>
		<path class="st0" d="M55.01,7.12c0.27,0.27,0.43,0.63,0.43,1.06s-0.16,0.8-0.45,1.08c-0.29,0.27-0.65,0.41-1.08,0.41
			s-0.79-0.14-1.08-0.41c-0.29-0.29-0.43-0.65-0.43-1.08s0.14-0.79,0.43-1.06c0.29-0.27,0.65-0.41,1.08-0.41
			C54.34,6.72,54.71,6.85,55.01,7.12z M55.03,10.85V21h-2.24V10.85H55.03z"/>
		<path class="st0" d="M60.23,6.72V21H58V6.72H60.23z"/>
		<path class="st0" d="M70.93,12.26c0.8,1.02,1.22,2.45,1.22,4.28h-7.6c0.08,0.94,0.33,1.67,0.77,2.16
			c0.43,0.49,1.06,0.75,1.86,0.75c0.69,0,1.24-0.16,1.67-0.47c0.33-0.25,0.63-0.67,0.9-1.24h2.24c-0.24,0.94-0.71,1.75-1.41,2.37
			c-0.9,0.77-2.02,1.16-3.38,1.16c-1.51,0-2.71-0.47-3.59-1.39c-0.94-0.96-1.41-2.28-1.41-3.96c0-1.51,0.43-2.77,1.34-3.79
			c0.86-1.04,2.06-1.55,3.57-1.55C68.77,10.57,70.05,11.12,70.93,12.26z M65.42,13.03c-0.41,0.41-0.69,1.02-0.82,1.83h5.22
			c-0.2-1.65-1.08-2.45-2.65-2.45C66.42,12.4,65.85,12.6,65.42,13.03z"/>
		<path class="st0" d="M81.61,11.46c0.81,0.63,1.32,1.57,1.51,2.85H80.9c-0.14-0.65-0.41-1.12-0.81-1.43
			c-0.41-0.31-0.96-0.47-1.63-0.47c-0.82,0-1.47,0.29-1.94,0.92c-0.47,0.61-0.71,1.47-0.71,2.57c0,1.12,0.22,2,0.69,2.63
			c0.43,0.61,1.08,0.92,1.94,0.92c1.49,0,2.32-0.75,2.49-2.22h2.22c-0.23,1.37-0.77,2.39-1.57,3.06c-0.78,0.65-1.85,0.98-3.16,0.98
			c-1.57,0-2.79-0.51-3.65-1.53c-0.84-0.98-1.26-2.26-1.26-3.83c0-1.53,0.41-2.79,1.24-3.75c0.88-1.06,2.12-1.59,3.71-1.59
			C79.79,10.57,80.83,10.87,81.61,11.46z"/>
		<path class="st0" d="M93.36,12.09c0.92,1,1.39,2.28,1.39,3.85c0,1.55-0.47,2.83-1.37,3.81c-0.94,1.02-2.2,1.53-3.73,1.53
			c-1.55,0-2.79-0.51-3.73-1.53c-0.92-0.98-1.37-2.26-1.37-3.81c0-1.57,0.45-2.85,1.39-3.85c0.92-1.02,2.16-1.51,3.71-1.51
			C91.18,10.57,92.41,11.07,93.36,12.09z M87.49,13.5c-0.43,0.63-0.65,1.45-0.65,2.43s0.22,1.79,0.65,2.41
			c0.51,0.73,1.22,1.1,2.16,1.1c0.92,0,1.65-0.37,2.16-1.1c0.43-0.65,0.67-1.45,0.67-2.41c0-0.98-0.23-1.81-0.67-2.43
			c-0.51-0.75-1.24-1.1-2.16-1.1C88.7,12.4,88,12.75,87.49,13.5z"/>
		<path class="st0" d="M99.33,7.12c0.27,0.27,0.43,0.63,0.43,1.06s-0.16,0.8-0.45,1.08c-0.29,0.27-0.65,0.41-1.08,0.41
			c-0.43,0-0.79-0.14-1.08-0.41c-0.29-0.29-0.43-0.65-0.43-1.08s0.14-0.79,0.43-1.06c0.29-0.27,0.65-0.41,1.08-0.41
			C98.66,6.72,99.03,6.85,99.33,7.12z M99.35,10.85V21h-2.24V10.85H99.35z"/>
		<path class="st0" d="M111.17,14.74V21h-2.24v-6.06c0-1.67-0.76-2.49-2.29-2.49c-0.55,0-1.04,0.2-1.45,0.59
			c-0.47,0.43-0.75,1.06-0.82,1.86V21h-2.24V10.85h2.24v1.18c0.39-0.47,0.84-0.84,1.33-1.08c0.51-0.25,1.06-0.37,1.67-0.37
			C109.89,10.57,111.17,11.95,111.17,14.74z"/>
	</g>
	<path class="st1" d="M14.83,28c-7.7,0-14-6.3-14-14.07C0.9,6.23,7.13-0.07,14.9,0c7.7,0.07,13.93,6.3,13.93,14.14
		C28.76,21.77,22.53,28,14.83,28"/>
	<path class="st2" d="M16.16,12.36l-0.42,2.24l3.99,0.56l-0.28,1.05l-3.92-0.56c-0.28,0.91-0.42,1.89-0.77,2.73
		c-0.35,0.98-0.7,1.96-1.12,2.87c-0.56,1.19-1.54,2.03-2.87,2.24c-0.77,0.14-1.61,0.07-2.24-0.42c-0.21-0.14-0.42-0.42-0.42-0.63
		c0-0.28,0.14-0.63,0.35-0.77c0.14-0.07,0.49,0,0.7,0.07c0.21,0.21,0.42,0.49,0.56,0.77c0.42,0.56,0.98,0.63,1.54,0.21
		c0.63-0.56,0.98-1.33,1.19-2.1c0.42-1.68,0.84-3.29,1.19-4.97v-0.28l-3.71-0.56l0.14-1.05l3.85,0.56l0.49-2.17l-3.99-0.63
		l0.14-1.12l4.13,0.56c0.14-0.42,0.21-0.77,0.35-1.12c0.35-1.26,0.7-2.52,1.54-3.64s1.82-1.82,3.29-1.75c0.63,0,1.26,0.21,1.68,0.7
		c0.07,0.07,0.21,0.21,0.21,0.35c0,0.28,0,0.63-0.21,0.84c-0.28,0.21-0.63,0.14-0.91-0.14c-0.21-0.21-0.35-0.42-0.56-0.63
		c-0.42-0.56-1.05-0.63-1.54-0.14c-0.35,0.35-0.7,0.84-0.91,1.33c-0.49,1.47-0.84,3.01-1.33,4.55l3.85,0.56l-0.28,1.05L16.16,12.36"
		/>
</g>
</svg>
