<?xml version="1.0" encoding="utf-8"?>
<!-- Generator: Adobe Illustrator 25.0.0, SVG Export Plug-In . SVG Version: 6.00 Build 0)  -->
<svg version="1.1" id="组_2_拷贝" xmlns="http://www.w3.org/2000/svg" xmlns:xlink="http://www.w3.org/1999/xlink" x="0px"
	 y="0px" viewBox="0 0 1392 388" style="enable-background:new 0 0 1392 388;" xml:space="preserve">
<style type="text/css">
	.st0{fill-rule:evenodd;clip-rule:evenodd;fill:#33B1FF;}
	.st1{fill-rule:evenodd;clip-rule:evenodd;fill:#96FA96;}
	.st2{fill-rule:evenodd;clip-rule:evenodd;fill:#33F8FF;}
	.st3{fill-rule:evenodd;clip-rule:evenodd;fill:#FFFFFF;}
	.st4{fill:#FFFFFF;}
</style>
<g>
	<g id="Topia_logo">
		<path id="_01" class="st0" d="M252.8,170.5L368,105l0,0v140.6c0,26.9-22.1,61.2-49.4,76.7l-115.2,65.5l0,0V247.3
			C203.5,220.4,225.6,186.1,252.8,170.5z"/>
		<path id="_02" class="st1" d="M115.2,171L0,105.6l0,0V246c0,26.8,22.1,61.1,49.4,76.6L164.5,388l0,0V247.6
			C164.5,220.8,142.4,186.5,115.2,171z"/>
		<path id="_03" class="st2" d="M17.9,71.2l115.3-59.5C160.5-2.4,201.8-4,225.4,8.2L349,72.1l0,0l-115.3,59.5
			c-27.3,14.1-68.6,15.6-92.2,3.4L17.9,71.2L17.9,71.2z"/>
	</g>
	<g>
		<g id="T">
			<path id="矩形_2_拷贝" class="st3" d="M526.9,99h121v34.9H492C492,114.6,507.6,99,526.9,99L526.9,99z M552.4,133.9h35V289
				h-35V133.9L552.4,133.9L552.4,133.9z"/>
		</g>
		<g id="O">
			<path id="圆角矩形_1_拷贝" class="st3" d="M714,99h83.8c19.9,0,36,16.1,36,36v136c0,9.9-8.1,18-18,18l0,0H678V135
				C678,115.1,694.2,99,714,99z M713.1,133.9h85.8v120.3h-85.8V133.9L713.1,133.9z"/>
		</g>
		<path class="st3" d="M983.9,99h-83.8c-0.3,0-0.6,0-1,0l0,0c-19.3,0-35,15.7-35,35v1v89.1V289h35v-64.9h84.8c19.9,0,36-16.1,36-36
			V135C1019.9,115.1,1003.8,99,983.9,99z M984.9,189.2h-85.8v-55.3h85.8V189.2z"/>
		<path class="st3" d="M1206,133.9V99h-125.8c-16.6,0-30,13.4-30,30v4.9h60.4v120.3h-60.4V289h60.4h35h30.4c16.6,0,30-13.4,30-30
			v-4.9h-60.4V133.9H1206z"/>
		<path class="st4" d="M1356,99h-83.8c-19.9,0-36,16.1-36,36v154h35v-64.9h85.8V289h17c9.9,0,18-8.1,18-18v-46.9v-34.9V135
			C1392,115.1,1375.9,99,1356,99z M1271.2,189.2v-55.3h85.8v55.3H1271.2z"/>
	</g>
</g>
</svg>
